<svg version="1.1" id="Layer_1" xmlns="http://www.w3.org/2000/svg" xmlns:xlink="http://www.w3.org/1999/xlink" x="0px" y="0px"
	 width="100%" viewBox="0 0 512 512" enable-background="new 0 0 512 512" xml:space="preserve">
<path fill="#000000" opacity="1.000000" stroke="none" 
	d="
M513.000000,204.000000 
	C513.000000,280.021423 513.000000,356.042877 512.684387,432.824951 
	C510.529022,430.056458 508.689301,426.527344 506.836670,422.654297 
	C505.492340,420.872375 504.160919,419.434418 502.826843,417.670593 
	C501.251709,415.882324 499.679260,414.419891 497.980957,412.649841 
	C496.606079,411.548706 495.357086,410.755188 493.969269,409.636475 
	C491.589203,408.191833 489.347992,407.072418 486.937012,405.612976 
	C483.882812,404.497894 480.998352,403.722778 477.894043,402.563782 
	C471.435638,402.107483 465.197052,402.035126 458.905579,401.568634 
	C458.846252,400.119781 458.839844,399.065094 458.912964,397.585144 
	C459.008179,392.066162 459.023926,386.972443 459.018738,381.451416 
	C457.994385,367.870117 453.332764,356.345886 443.907074,346.628662 
	C441.024200,343.838074 438.064209,341.397339 435.051147,338.598572 
	C432.718414,336.474487 430.438690,334.708496 428.007416,332.602783 
	C425.235626,331.228668 422.615387,330.194305 419.689087,329.031708 
	C418.253052,328.340729 417.123108,327.778015 415.623352,327.117767 
	C413.834381,326.735962 412.415253,326.451691 410.594421,326.087158 
	C407.808990,325.632568 405.425262,325.258240 402.826202,324.514343 
	C399.087738,324.065674 395.564545,323.986633 392.021484,323.538452 
	C389.377563,318.768341 386.753479,314.367340 383.984253,309.645111 
	C381.504242,306.882996 379.169342,304.442139 376.863403,301.706055 
	C376.540985,300.944244 376.189636,300.477722 376.006775,299.674316 
	C378.812744,298.230927 381.450165,297.124390 384.418457,295.888275 
	C387.178833,294.208984 389.608398,292.659332 392.401917,291.053894 
	C396.594025,288.727936 400.819977,286.926483 404.165283,284.087372 
	C410.588959,278.635651 417.007843,273.022217 422.491272,266.667023 
	C427.038879,261.396484 430.240295,254.964371 434.359741,248.896210 
	C435.796143,246.188339 436.910889,243.631104 438.365295,240.896698 
	C439.458771,238.081284 440.212555,235.442993 441.348297,232.723480 
	C442.137146,230.698730 442.544098,228.755219 443.337341,226.741547 
	C444.162506,223.815720 444.601349,220.960037 445.389130,217.907822 
	C445.840576,215.844864 445.943085,213.978439 446.417725,211.876923 
	C446.525787,200.450775 446.893555,189.195068 445.757874,178.093170 
	C445.090271,171.566864 442.033356,165.284988 440.027283,158.510910 
	C438.280701,154.419403 436.557922,150.710159 434.804810,146.647842 
	C432.556213,142.848511 430.337982,139.402267 427.974915,135.634674 
	C425.203949,131.941849 422.577850,128.570374 419.696228,125.071106 
	C419.236023,124.628830 419.031311,124.314354 418.816772,123.667931 
	C416.571320,121.210533 414.335693,119.085075 412.016602,116.708450 
	C411.629089,116.361237 411.325043,116.265205 410.780548,116.086563 
	C410.375031,115.965721 410.209930,115.927498 409.918213,115.580902 
	C407.874817,113.810905 405.958099,112.349289 403.910278,110.573975 
	C401.203949,108.464523 398.628723,106.668777 395.903687,104.550323 
	C393.183685,103.115517 390.613525,102.003426 387.904785,100.581551 
	C386.176666,99.571190 384.587158,98.870605 382.658325,98.011063 
	C379.227142,96.863541 376.135254,95.874969 372.873840,94.551933 
	C367.135284,92.867210 361.566162,91.516953 355.566711,90.092453 
	C353.234528,89.679863 351.341736,89.114876 349.429474,89.038582 
	C332.346832,88.357140 315.540436,89.524361 299.399292,95.960693 
	C286.497345,101.105370 274.743225,107.923088 264.639771,118.017349 
	C261.844757,120.748558 259.362396,123.353714 256.563202,126.088211 
	C254.123276,129.132309 252.000137,132.047058 249.566406,135.097519 
	C248.154083,137.118469 247.052338,139.003708 245.625214,141.043762 
	C243.919098,144.131256 242.538345,147.063934 241.000092,150.328308 
	C239.185379,154.091080 237.528183,157.522125 235.555908,160.974182 
	C234.826324,161.052078 234.411804,161.108978 233.597000,161.085434 
	C229.797119,160.392059 226.397537,159.779144 222.560730,159.090164 
	C219.047958,158.675858 215.963226,157.983459 212.898514,158.062973 
	C201.833649,158.350052 190.894257,159.570099 180.272125,162.992599 
	C152.530472,171.931137 132.203232,189.496979 119.187637,215.492813 
	C113.292564,227.266922 110.287766,239.905746 108.537285,252.822220 
	C104.484367,252.113602 100.800774,251.537796 96.892815,250.580795 
	C90.099632,250.426758 83.530823,250.653915 76.530762,250.938477 
	C72.717995,251.622375 69.336456,252.248886 65.564957,252.933044 
	C63.449238,253.382553 61.723492,253.774414 59.631195,254.193832 
	C56.843479,255.197647 54.422314,256.173889 51.641273,257.162628 
	C26.549278,270.184418 9.050800,289.025024 2.887395,317.059875 
	C2.792666,317.490723 1.652352,317.691711 0.999997,318.000000 
	C1.000000,212.378601 1.000000,106.757195 1.000000,1.067898 
	C171.548279,1.067898 342.096588,1.067898 513.000000,1.067898 
	C513.000000,63.687653 513.000000,126.375977 512.712646,189.829315 
	C508.236664,186.150528 503.078491,184.642273 497.041504,184.929657 
	C490.779053,185.227768 484.490295,185.069626 478.215057,184.976059 
	C471.494232,184.875824 466.344971,187.070724 464.090088,194.355469 
	C464.061371,195.484680 464.111572,196.241333 464.086243,197.367462 
	C464.061188,198.486786 464.111664,199.236633 464.087219,200.300766 
	C464.315430,201.111038 464.618561,201.607010 464.955322,202.421326 
	C465.623749,203.509644 466.258514,204.279633 467.039856,205.376373 
	C470.678650,207.135345 474.088623,209.484741 477.680420,209.806778 
	C484.912903,210.455231 492.248138,210.141632 499.533508,209.946167 
	C503.867401,209.829895 508.100403,208.988678 511.001709,204.633316 
	C511.790863,204.197571 512.395447,204.098785 513.000000,204.000000 
M344.531830,24.015163 
	C344.531830,24.015163 344.108459,23.925596 343.811035,23.272125 
	C342.871887,23.235582 341.932770,23.199039 340.329590,23.018650 
	C339.882233,23.068157 339.434875,23.117666 338.242126,23.019636 
	C337.487518,23.070164 336.732880,23.120691 335.258881,23.031010 
	C329.544373,25.332956 326.608521,29.186457 326.904083,35.724030 
	C327.284332,44.134598 326.979095,52.575417 327.002716,61.003105 
	C327.018585,66.664566 330.046326,70.282150 336.723480,71.986961 
	C337.478455,71.935608 338.233429,71.884254 339.650726,71.983513 
	C340.098297,71.934761 340.545837,71.886009 341.701233,71.986069 
	C342.504822,71.681175 343.308380,71.376282 344.522491,70.992432 
	C344.522491,70.992432 344.918213,70.857567 345.518738,70.958611 
	C346.019836,70.351959 346.520966,69.745308 347.690308,68.822838 
	C348.793396,65.383614 350.637268,61.989342 350.849274,58.496037 
	C351.327728,50.611362 351.360718,42.652798 350.817230,34.776581 
	C350.607208,31.732822 348.345490,28.830639 346.820740,25.315371 
	C346.189911,24.939781 345.559113,24.564192 344.531830,24.015163 
M429.341797,283.989288 
	C428.875824,284.289856 428.409851,284.590393 427.322357,285.142242 
	C426.531036,286.397797 425.739746,287.653381 424.274811,289.254883 
	C424.238129,290.489349 424.201447,291.723785 424.017029,293.795349 
	C423.549194,298.394653 425.383484,302.006348 428.625702,305.150848 
	C433.403168,309.784363 438.105865,314.497711 442.748688,319.266327 
	C446.156891,322.766846 450.048004,324.723419 455.774078,323.973969 
	C456.874451,323.668823 457.974823,323.363678 459.744720,322.997009 
	C460.864380,322.019592 461.984070,321.042175 463.676361,319.827515 
	C463.820526,319.236481 463.964691,318.645416 464.699738,317.809662 
	C465.076752,316.867371 465.453796,315.925079 465.982635,314.143524 
	C464.798523,310.399078 464.552917,305.883362 462.238831,303.067566 
	C457.105499,296.821198 451.104431,291.242065 445.119019,285.760101 
	C441.848297,282.764496 437.683350,281.229858 432.377136,282.138275 
	C431.568024,282.721466 430.758911,283.304657 429.341797,283.989288 
M424.984833,105.778397 
	C426.314270,107.237015 427.643677,108.695625 429.288055,110.839783 
	C435.810669,113.934479 440.138489,113.319809 444.964142,108.521324 
	C450.968414,102.550835 456.955200,96.562363 462.909241,90.541862 
	C466.625732,86.783936 467.030518,81.720428 463.977295,76.264503 
	C462.356415,74.828362 460.735535,73.392220 458.739899,71.258003 
	C452.253021,68.620560 447.242645,70.911232 442.719818,75.707314 
	C437.824982,80.897812 432.761353,85.940979 427.577332,90.843262 
	C423.150848,95.029198 423.199768,99.833832 424.984833,105.778397 
M218.346985,71.147476 
	C216.858017,72.748779 215.369049,74.350075 213.187073,76.328407 
	C210.664108,82.567291 211.637741,88.130356 216.430878,92.932632 
	C221.470901,97.982262 226.439255,103.108170 231.606674,108.024437 
	C236.044357,112.246452 241.064468,114.436142 247.769989,110.968773 
	C249.459335,108.980255 251.148682,106.991737 253.193680,104.259300 
	C252.857498,100.748428 253.794586,96.214027 251.948212,93.917145 
	C246.235825,86.810928 239.611740,80.404037 233.046356,74.029739 
	C229.168259,70.264496 224.431992,68.573647 218.346985,71.147476 
z"/>
<path fill="#000000" opacity="1.000000" stroke="none" 
	d="
M513.000000,460.000000 
	C513.000000,477.655945 513.000000,495.311890 513.000000,512.983887 
	C342.447540,512.983887 171.895065,512.983887 1.000000,512.983887 
	C1.000000,460.979614 1.000000,408.958466 1.335050,356.168457 
	C2.112933,356.216370 2.638036,356.999817 2.985302,357.855408 
	C5.307556,363.576630 7.591876,369.313293 9.941226,375.414673 
	C14.648545,382.563934 19.303148,389.343445 24.080425,396.434326 
	C30.454775,401.535522 36.706448,406.325378 43.107635,411.442261 
	C43.972446,412.111542 44.664089,412.519806 45.406689,412.785828 
	C52.932636,415.481750 60.466904,418.154388 68.370499,421.017700 
	C77.494041,421.745728 86.245934,422.289551 95.460983,422.910828 
	C106.948891,422.936646 117.973640,422.885040 129.461456,422.910889 
	C141.615417,422.936615 153.306290,422.884857 165.460327,422.910736 
	C179.614441,422.936768 193.305420,422.885162 207.459564,422.911316 
	C226.589401,423.010132 245.256073,423.031128 263.957764,423.483765 
	C263.973053,424.747040 264.060425,425.597626 263.917297,426.407440 
	C262.259308,435.787781 262.051788,445.057007 265.937317,454.425995 
	C268.640594,462.605988 272.369659,469.716187 279.017853,475.364807 
	C281.623566,477.807495 283.850555,480.367950 286.630005,481.969421 
	C292.976105,485.625824 299.239471,489.740356 307.382050,490.029663 
	C308.494812,490.484314 309.222809,490.967346 309.950470,490.966858 
	C320.965576,490.959717 331.980621,490.889130 343.458801,490.911865 
	C357.613037,490.938049 371.304108,490.885773 385.458344,490.911987 
	C397.612701,490.938080 409.303925,490.885712 421.458344,490.911560 
	C438.659576,490.992950 455.400909,491.176270 472.133179,490.867645 
	C476.119110,490.794128 480.074677,489.076538 484.425262,488.065918 
	C488.909760,485.691772 493.013214,483.366913 497.424896,480.923462 
	C499.874115,478.554504 502.015167,476.304138 504.475922,473.905487 
	C506.914551,469.320099 509.002197,464.867249 511.209442,460.474548 
	C511.393250,460.108795 512.384155,460.148621 513.000000,460.000000 
M65.008141,444.178436 
	C64.356026,442.417542 63.703911,440.656616 62.992683,438.203888 
	C61.678844,437.100830 60.365002,435.997772 58.654518,434.222382 
	C52.306904,431.451019 47.429935,433.720093 42.984337,438.432068 
	C37.875778,443.846741 32.462543,448.972778 27.235159,454.276886 
	C22.298721,459.285828 21.877794,462.167114 24.991407,469.740936 
	C26.647823,471.196106 28.304241,472.651276 30.311129,474.752350 
	C31.522951,474.865784 32.734776,474.979248 34.323772,475.749023 
	C38.894913,475.668427 42.706383,474.151398 45.922909,470.673370 
	C50.541332,465.679443 55.357540,460.845642 60.361027,456.238556 
	C63.770988,453.098694 65.677666,449.622986 65.008141,444.178436 
M236.956757,443.283020 
	C236.339966,441.840393 235.723175,440.397766 234.833618,438.337646 
	C233.237671,437.187531 231.641739,436.037384 229.664536,434.222443 
	C225.624252,432.036133 221.507172,432.478516 218.297882,435.332031 
	C211.148483,441.688721 204.040314,448.164459 197.601425,455.217957 
	C194.214340,458.928314 193.725357,464.092102 196.171585,469.632446 
	C197.412613,470.773315 198.653641,471.914154 200.227905,473.693329 
	C201.802078,474.166321 203.376251,474.639282 205.335968,475.772888 
	C208.489395,474.747589 212.255447,474.485535 214.673706,472.544403 
	C220.399414,467.948364 225.539993,462.611237 230.811081,457.465088 
	C234.563080,453.802032 238.172379,449.975433 236.956757,443.283020 
M148.833542,438.332062 
	C147.581589,437.185211 146.329620,436.038330 144.689178,434.205902 
	C139.624969,432.483307 134.987091,432.312744 130.768906,436.573273 
	C125.087341,442.311890 118.800774,447.467346 113.298416,453.362640 
	C108.846855,458.132141 107.061996,463.878479 111.171944,470.680634 
	C112.078880,471.472290 112.985817,472.263947 114.248001,473.709778 
	C116.149940,474.173401 118.051880,474.637054 120.329132,475.755188 
	C124.983635,475.900269 128.668518,473.899902 131.854431,470.668427 
	C136.618332,465.836304 141.405960,461.026550 146.247086,456.272034 
	C149.712250,452.868866 151.762253,449.002899 150.966629,443.279205 
	C150.348572,441.838135 149.730530,440.397064 148.833542,438.332062 
z"/>
<path fill="#E7F4FE" opacity="1.000000" stroke="none" 
	d="
M9.888513,375.044922 
	C7.591876,369.313293 5.307556,363.576630 2.985302,357.855408 
	C2.638036,356.999817 2.112933,356.216370 1.335050,355.699768 
	C1.000000,343.645782 1.000000,331.291534 0.999997,318.468658 
	C1.652352,317.691711 2.792666,317.490723 2.887395,317.059875 
	C9.050800,289.025024 26.549278,270.184418 51.648949,257.524536 
	C52.993420,259.073181 53.762493,260.568420 54.980762,261.423981 
	C63.381718,267.323639 71.919106,273.029022 80.322563,278.925201 
	C84.379890,281.771973 90.152229,284.121246 91.756989,288.072876 
	C94.340080,294.433563 100.841110,296.277710 104.120964,302.090851 
	C106.925026,307.060699 109.075188,311.038361 108.446365,316.702850 
	C89.510902,327.698303 70.490128,338.604309 51.611782,349.751556 
	C37.608189,358.020355 23.789541,366.602417 9.888513,375.044922 
z"/>
<path fill="#96C6F3" opacity="1.000000" stroke="none" 
	d="
M513.000000,459.531342 
	C512.384155,460.148621 511.393250,460.108795 511.209442,460.474548 
	C509.002197,464.867249 506.914551,469.320099 504.095093,473.826355 
	C502.596832,471.520905 501.006653,469.103607 501.131866,466.778717 
	C501.864624,453.174286 502.939697,439.586395 504.110413,426.011108 
	C504.203125,424.936096 505.898865,423.999298 506.849579,422.998230 
	C508.689301,426.527344 510.529022,430.056458 512.684387,433.292786 
	C513.000000,441.687561 513.000000,450.375122 513.000000,459.531342 
z"/>
<path fill="#FDEEAA" opacity="1.000000" stroke="none" 
	d="
M464.169006,193.982925 
	C466.344971,187.070724 471.494232,184.875824 478.215057,184.976059 
	C484.490295,185.069626 490.779053,185.227768 497.041504,184.929657 
	C503.078491,184.642273 508.236664,186.150528 512.712646,190.297150 
	C513.000000,191.066666 513.000000,192.133347 512.531372,193.598724 
	C496.098114,193.992584 480.133575,193.987747 464.169006,193.982925 
z"/>
<path fill="#FDE68C" opacity="1.000000" stroke="none" 
	d="
M464.090088,194.355469 
	C480.133575,193.987747 496.098114,193.992584 512.531372,193.998718 
	C513.000000,194.750000 513.000000,195.500000 512.531372,196.626785 
	C496.095703,197.001709 480.128754,196.999847 464.161774,196.997986 
	C464.111572,196.241333 464.061371,195.484680 464.090088,194.355469 
z"/>
<path fill="#FCDE71" opacity="1.000000" stroke="none" 
	d="
M464.086243,197.367462 
	C480.128754,196.999847 496.095703,197.001709 512.531372,197.001785 
	C513.000000,197.750000 513.000000,198.500000 512.531372,199.625214 
	C496.095825,199.995789 480.128967,199.991119 464.162109,199.986465 
	C464.111664,199.236633 464.061188,198.486786 464.086243,197.367462 
z"/>
<path fill="#FBCF24" opacity="1.000000" stroke="none" 
	d="
M513.000000,203.666672 
	C512.395447,204.098785 511.790863,204.197571 510.544922,204.641663 
	C495.566833,205.007858 481.230042,205.028748 466.893280,205.049622 
	C466.258514,204.279633 465.623749,203.509644 465.425842,202.396606 
	C481.575165,202.035721 497.287567,202.017853 513.000000,202.000000 
	C513.000000,202.444443 513.000000,202.888901 513.000000,203.666672 
z"/>
<path fill="#FBD24E" opacity="1.000000" stroke="none" 
	d="
M513.000000,201.666672 
	C497.287567,202.017853 481.575165,202.035721 465.392212,202.078278 
	C464.618561,201.607010 464.315430,201.111038 464.087219,200.300766 
	C480.128967,199.991119 496.095825,199.995789 512.531372,200.000214 
	C513.000000,200.444443 513.000000,200.888901 513.000000,201.666672 
z"/>
<path fill="#DBEEFE" opacity="1.000000" stroke="none" 
	d="
M67.998856,420.833557 
	C60.466904,418.154388 52.932636,415.481750 45.406689,412.785828 
	C44.664089,412.519806 43.972446,412.111542 43.154678,411.086975 
	C44.750256,408.917419 46.260704,407.109253 48.174267,405.990723 
	C80.844688,386.894104 113.639511,368.008667 146.196182,348.720917 
	C151.242599,345.731293 159.740646,344.527130 157.170898,335.030487 
	C160.844894,330.897644 157.479309,328.386505 155.227310,325.276306 
	C148.006897,315.304169 140.190979,306.061859 129.793701,299.110046 
	C118.680199,291.679382 107.984451,283.627106 96.978233,276.031830 
	C87.992081,269.830566 78.759834,263.985809 69.778778,257.777496 
	C68.151993,256.652924 67.211998,254.534821 65.954926,252.875397 
	C69.336456,252.248886 72.717995,251.622375 76.574554,251.293900 
	C80.226677,254.082703 83.273575,256.765045 86.604630,259.029327 
	C97.836601,266.664215 109.317497,273.940033 120.425758,281.747894 
	C133.789917,291.141357 146.852814,300.962708 160.084473,310.545898 
	C163.651199,313.129150 167.356888,315.520538 171.264374,318.226013 
	C173.263336,322.637695 176.151077,322.658508 179.574051,320.662872 
	C203.528442,306.696930 227.509094,292.775543 251.402924,278.706726 
	C255.190781,276.476410 258.960754,274.233368 260.763031,269.535706 
	C265.590302,256.953552 265.017365,243.908081 262.307312,231.442139 
	C259.084381,216.617065 253.415543,202.329224 248.925171,187.772003 
	C246.490952,179.880554 244.303513,171.912994 242.377747,163.988037 
	C244.833786,164.749466 246.916809,165.502609 249.000244,166.648163 
	C249.416550,169.143936 249.606964,171.323013 250.283661,173.338837 
	C256.242981,191.091202 262.701202,208.689285 268.140717,226.597595 
	C270.999634,236.009933 272.490417,245.896255 273.914124,255.668304 
	C275.128632,264.004700 275.236237,272.496368 276.064728,280.896545 
	C277.132294,291.720825 272.680176,300.087921 263.186523,305.444305 
	C249.731079,313.035980 236.370346,320.797913 223.036087,328.601501 
	C198.809998,342.779236 174.662277,357.090973 150.428040,371.254700 
	C123.752686,386.845154 97.008965,402.318665 70.337112,417.915039 
	C69.332375,418.502563 68.768295,419.843658 67.998856,420.833557 
z"/>
<path fill="#E9F6FF" opacity="1.000000" stroke="none" 
	d="
M108.906609,252.955032 
	C110.287766,239.905746 113.292564,227.266922 119.187637,215.492813 
	C132.203232,189.496979 152.530472,171.931137 180.272125,162.992599 
	C190.894257,159.570099 201.833649,158.350052 212.898514,158.062973 
	C215.963226,157.983459 219.047958,158.675858 222.611176,159.444519 
	C224.544159,163.221481 226.156952,166.507828 227.387192,169.931625 
	C228.595169,173.293472 229.885254,176.738327 230.307724,180.246872 
	C231.229553,187.902237 231.833908,195.613907 232.099991,203.318741 
	C232.176422,205.531998 231.331879,208.917999 229.759842,209.872360 
	C212.344269,220.444809 194.703003,230.645569 177.121155,240.944046 
	C163.413681,248.973129 149.703918,256.998291 135.678864,264.880981 
	C126.543907,260.809479 117.725258,256.882263 108.906609,252.955032 
z"/>
<path fill="#DDEFFE" opacity="1.000000" stroke="none" 
	d="
M306.997131,489.833160 
	C299.239471,489.740356 292.976105,485.625824 286.630005,481.969421 
	C283.850555,480.367950 281.623566,477.807495 279.330505,475.214478 
	C284.894836,471.457428 290.228638,468.090668 295.662415,464.893829 
	C312.116577,455.213440 328.581329,445.550262 345.105408,435.990051 
	C349.714233,433.323517 351.625427,430.257599 349.754517,425.439545 
	C348.549530,422.336395 346.434692,419.152893 343.857758,417.094269 
	C334.681274,409.763458 325.141235,402.886963 315.720612,395.862915 
	C310.835602,392.220612 305.912354,388.629547 301.268738,384.738586 
	C304.687408,383.974762 307.843719,383.487671 311.151489,383.302917 
	C314.509949,385.919403 317.710236,388.242828 320.925079,390.545959 
	C335.324066,400.861633 349.717346,411.185333 364.143585,421.462769 
	C365.629608,422.521423 367.321045,423.291779 370.155182,424.897217 
	C368.822601,419.893555 367.905945,416.451691 367.317535,412.864136 
	C370.366180,411.505493 373.222168,410.526031 375.783417,409.038940 
	C386.372620,402.890717 396.894257,396.624969 407.397705,390.330627 
	C414.498993,386.075043 417.706940,378.488770 415.653717,370.549255 
	C412.971619,360.177795 410.137604,349.845154 407.304108,339.513611 
	C405.960785,334.615753 404.467041,329.759186 403.041504,324.883911 
	C405.425262,325.258240 407.808990,325.632568 410.605286,326.467499 
	C413.990143,335.903717 416.612915,345.014130 420.010651,353.825684 
	C426.276184,370.074493 429.311615,386.985931 430.881287,404.180237 
	C431.472809,410.659821 428.664185,416.234039 423.036438,419.934143 
	C419.709564,422.121460 416.228851,424.078491 412.785034,426.083557 
	C380.061707,445.135712 347.307770,464.135681 314.644714,483.290588 
	C311.796234,484.961090 309.532501,487.628693 306.997131,489.833160 
z"/>
<path fill="#E8F5FF" opacity="1.000000" stroke="none" 
	d="
M402.826172,324.514343 
	C404.467041,329.759186 405.960785,334.615753 407.304108,339.513611 
	C410.137604,349.845154 412.971619,360.177795 415.653717,370.549255 
	C417.706940,378.488770 414.498993,386.075043 407.397705,390.330627 
	C396.894257,396.624969 386.372620,402.890717 375.783417,409.038940 
	C373.222168,410.526031 370.366180,411.505493 367.054047,412.663330 
	C364.980164,410.402557 363.497986,408.196838 361.862915,405.692200 
	C355.171417,396.026001 346.758453,388.957184 335.787964,385.531006 
	C331.403656,384.161804 331.224976,381.128265 332.268555,378.220306 
	C335.312683,369.737518 338.002930,360.909393 342.578186,353.261383 
	C346.459290,346.773712 352.770569,341.739868 358.353821,336.000122 
	C362.799500,333.619568 366.897827,331.301636 371.369324,328.944122 
	C374.495575,327.941040 377.248718,326.977509 380.422119,326.003815 
	C384.575409,325.298279 388.308380,324.602905 392.041382,323.907562 
	C395.564545,323.986633 399.087738,324.065674 402.826172,324.514343 
z"/>
<path fill="#E6F3FE" opacity="1.000000" stroke="none" 
	d="
M135.995163,265.025208 
	C149.703918,256.998291 163.413681,248.973129 177.121155,240.944046 
	C194.703003,230.645569 212.344269,220.444809 229.759842,209.872360 
	C231.331879,208.917999 232.176422,205.531998 232.099991,203.318741 
	C231.833908,195.613907 231.229553,187.902237 230.307724,180.246872 
	C229.885254,176.738327 228.595169,173.293472 227.387192,169.931625 
	C226.156952,166.507828 224.544159,163.221481 223.048401,159.520599 
	C226.397537,159.779144 229.797119,160.392059 233.597931,161.488724 
	C236.538605,172.036484 238.866776,182.159775 241.670364,192.149658 
	C245.272980,204.986679 249.533615,217.571259 250.191605,231.144379 
	C250.614487,239.867233 248.160690,245.923660 240.472870,250.333740 
	C219.173660,262.551941 198.107986,275.177002 176.820084,287.415314 
	C172.168045,290.089752 166.975632,291.824249 162.020538,293.993347 
	C162.009033,293.995056 161.991562,294.001099 161.842804,293.697174 
	C154.801224,282.421204 146.584183,272.648804 135.995163,265.025208 
z"/>
<path fill="#E2F2FE" opacity="1.000000" stroke="none" 
	d="
M9.941228,375.414703 
	C23.789541,366.602417 37.608189,358.020355 51.611782,349.751556 
	C70.490128,338.604309 89.510902,327.698303 108.446365,316.702850 
	C109.075188,311.038361 106.925026,307.060699 104.120964,302.090851 
	C100.841110,296.277710 94.340080,294.433563 91.756989,288.072876 
	C90.152229,284.121246 84.379890,281.771973 80.322563,278.925201 
	C71.919106,273.029022 63.381718,267.323639 54.980762,261.423981 
	C53.762493,260.568420 52.993420,259.073181 52.008816,257.512024 
	C54.422314,256.173889 56.843479,255.197647 59.639591,254.554764 
	C60.993908,256.083618 61.763214,257.594452 62.993183,258.413757 
	C66.300766,260.617035 70.021660,262.234192 73.195290,264.598419 
	C90.685684,277.628174 108.168312,290.673645 125.419434,304.016479 
	C131.561722,308.767242 137.971451,313.850372 136.093369,323.293610 
	C135.977615,323.875671 136.373657,324.575531 136.582993,325.203461 
	C137.576492,328.183533 136.699936,330.032715 133.830368,331.678101 
	C118.290314,340.588470 102.887779,349.738281 87.412483,358.762085 
	C70.789032,368.455383 54.122440,378.074768 37.508053,387.783508 
	C32.930111,390.458649 28.471256,393.337555 23.957754,396.122925 
	C19.303148,389.343445 14.648545,382.563934 9.941228,375.414703 
z"/>
<path fill="#E1F1FE" opacity="1.000000" stroke="none" 
	d="
M162.032059,293.991608 
	C166.975632,291.824249 172.168045,290.089752 176.820084,287.415314 
	C198.107986,275.177002 219.173660,262.551941 240.472870,250.333740 
	C248.160690,245.923660 250.614487,239.867233 250.191605,231.144379 
	C249.533615,217.571259 245.272980,204.986679 241.670364,192.149658 
	C238.866776,182.159775 236.538605,172.036484 233.998230,161.569183 
	C234.411804,161.108978 234.826324,161.052078 235.760300,161.264374 
	C238.188095,162.348969 240.096420,163.164368 242.004761,163.979767 
	C244.303513,171.912994 246.490952,179.880554 248.925171,187.772003 
	C253.415543,202.329224 259.084381,216.617065 262.307312,231.442139 
	C265.017365,243.908081 265.590302,256.953552 260.763031,269.535706 
	C258.960754,274.233368 255.190781,276.476410 251.402924,278.706726 
	C227.509094,292.775543 203.528442,306.696930 179.574051,320.662872 
	C176.151077,322.658508 173.263336,322.637695 171.255280,317.829224 
	C167.997757,309.468201 165.014908,301.729889 162.032059,293.991608 
z"/>
<path fill="#DEF0FE" opacity="1.000000" stroke="none" 
	d="
M24.080429,396.434326 
	C28.471256,393.337555 32.930111,390.458649 37.508053,387.783508 
	C54.122440,378.074768 70.789032,368.455383 87.412483,358.762085 
	C102.887779,349.738281 118.290314,340.588470 133.830368,331.678101 
	C136.699936,330.032715 137.576492,328.183533 136.582993,325.203461 
	C136.373657,324.575531 135.977615,323.875671 136.093369,323.293610 
	C137.971451,313.850372 131.561722,308.767242 125.419434,304.016479 
	C108.168312,290.673645 90.685684,277.628174 73.195290,264.598419 
	C70.021660,262.234192 66.300766,260.617035 62.993183,258.413757 
	C61.763214,257.594452 60.993908,256.083618 60.006142,254.527191 
	C61.723492,253.774414 63.449238,253.382553 65.564957,252.933044 
	C67.211998,254.534821 68.151993,256.652924 69.778778,257.777496 
	C78.759834,263.985809 87.992081,269.830566 96.978233,276.031830 
	C107.984451,283.627106 118.680199,291.679382 129.793701,299.110046 
	C140.190979,306.061859 148.006897,315.304169 155.227310,325.276306 
	C157.479309,328.386505 160.844894,330.897644 157.170898,335.030487 
	C159.740646,344.527130 151.242599,345.731293 146.196182,348.720917 
	C113.639511,368.008667 80.844688,386.894104 48.174267,405.990723 
	C46.260704,407.109253 44.750256,408.917419 43.005165,410.759949 
	C36.706448,406.325378 30.454775,401.535522 24.080429,396.434326 
z"/>
<path fill="#D4EBFE" opacity="1.000000" stroke="none" 
	d="
M307.382050,490.029663 
	C309.532501,487.628693 311.796234,484.961090 314.644714,483.290588 
	C347.307770,464.135681 380.061707,445.135712 412.785034,426.083557 
	C416.228851,424.078491 419.709564,422.121460 423.036438,419.934143 
	C428.664185,416.234039 431.472809,410.659821 430.881287,404.180237 
	C429.311615,386.985931 426.276184,370.074493 420.010651,353.825684 
	C416.612915,345.014130 413.990143,335.903717 411.006958,326.547791 
	C412.415253,326.451691 413.834381,326.735962 415.624146,327.519318 
	C416.848114,331.366638 417.381836,334.837006 418.606415,338.043457 
	C426.999847,360.020233 434.491364,382.257416 438.909332,405.428101 
	C440.188965,412.139404 440.552704,412.262634 446.349915,407.952911 
	C448.462433,406.938049 450.229065,405.960327 452.350891,404.947693 
	C454.790222,403.929443 456.874359,402.946106 458.958496,401.962769 
	C465.197052,402.035126 471.435638,402.107483 477.610809,402.759705 
	C474.111145,409.278534 470.144531,414.609436 463.930176,418.114868 
	C451.664764,425.033600 439.560883,432.239136 427.403259,439.348419 
	C402.087952,454.151733 376.749298,468.915833 351.511383,483.850098 
	C348.388794,485.697876 345.820740,488.482788 342.995697,490.833435 
	C331.980621,490.889130 320.965576,490.959717 309.950470,490.966858 
	C309.222809,490.967346 308.494812,490.484314 307.382050,490.029663 
z"/>
<path fill="#CAE6FE" opacity="1.000000" stroke="none" 
	d="
M343.458801,490.911865 
	C345.820740,488.482788 348.388794,485.697876 351.511383,483.850098 
	C376.749298,468.915833 402.087952,454.151733 427.403259,439.348419 
	C439.560883,432.239136 451.664764,425.033600 463.930176,418.114868 
	C470.144531,414.609436 474.111145,409.278534 477.830627,403.143616 
	C480.998352,403.722778 483.882812,404.497894 486.642090,405.826019 
	C485.665070,408.696838 484.731628,410.988342 483.975128,413.336792 
	C480.145447,425.225739 475.276825,436.393402 463.795135,443.086273 
	C441.567047,456.043335 419.298431,468.931824 397.148315,482.020874 
	C392.859161,484.555420 389.034271,487.875671 384.995209,490.833496 
	C371.304108,490.885773 357.613037,490.938049 343.458801,490.911865 
z"/>
<path fill="#FDEBA1" opacity="1.000000" stroke="none" 
	d="
M355.997070,90.166679 
	C361.566162,91.516953 367.135284,92.867210 372.855408,94.948532 
	C372.884735,96.329529 372.785309,96.984558 372.638031,97.628632 
	C369.854340,109.801292 361.723206,118.742416 353.760498,127.533859 
	C345.065430,137.133865 335.520691,145.963531 326.361664,155.144318 
	C320.461151,161.058823 313.995544,165.571930 304.784668,163.724380 
	C286.471100,157.323914 273.570038,144.322845 261.173279,130.653503 
	C259.748688,129.082703 258.311401,127.523468 256.880005,125.958862 
	C259.362396,123.353714 261.844757,120.748558 264.779236,118.338058 
	C272.047394,130.929565 284.040222,136.715866 296.042511,142.371704 
	C297.562622,143.088013 300.223663,142.882004 301.665344,141.988571 
	C306.244781,139.150696 310.947510,136.251740 314.793854,132.538651 
	C327.586548,120.189140 340.046539,107.494095 352.571747,94.869705 
	C353.921936,93.508812 354.865082,91.744087 355.997070,90.166679 
z"/>
<path fill="#FDEEAA" opacity="1.000000" stroke="none" 
	d="
M355.566711,90.092445 
	C354.865082,91.744087 353.921936,93.508812 352.571747,94.869705 
	C340.046539,107.494095 327.586548,120.189140 314.793854,132.538651 
	C310.947510,136.251740 306.244781,139.150696 301.665344,141.988571 
	C300.223663,142.882004 297.562622,143.088013 296.042511,142.371704 
	C284.040222,136.715866 272.047394,130.929565 265.091919,118.212006 
	C274.743225,107.923088 286.497345,101.105370 299.399292,95.960693 
	C315.540436,89.524361 332.346832,88.357140 349.429474,89.038582 
	C351.341736,89.114876 353.234528,89.679863 355.566711,90.092445 
z"/>
<path fill="#BEE0FE" opacity="1.000000" stroke="none" 
	d="
M385.458344,490.911987 
	C389.034271,487.875671 392.859161,484.555420 397.148315,482.020874 
	C419.298431,468.931824 441.567047,456.043335 463.795135,443.086273 
	C475.276825,436.393402 480.145447,425.225739 483.975128,413.336792 
	C484.731628,410.988342 485.665070,408.696838 486.811829,406.166016 
	C489.347992,407.072418 491.589203,408.191833 493.595398,409.712372 
	C492.588989,411.681396 491.530457,413.174011 491.096283,414.830292 
	C489.258728,421.840637 488.266327,429.147705 485.733307,435.883118 
	C481.867676,446.162048 476.857574,456.044800 466.891754,461.994110 
	C454.502289,469.390259 441.896240,476.424103 429.524078,483.848297 
	C426.406525,485.719086 423.823700,488.480957 420.995148,490.833344 
	C409.303925,490.885712 397.612701,490.938080 385.458344,490.911987 
z"/>
<path fill="#B3DAFE" opacity="1.000000" stroke="none" 
	d="
M421.458344,490.911560 
	C423.823700,488.480957 426.406525,485.719086 429.524078,483.848297 
	C441.896240,476.424103 454.502289,469.390259 466.891754,461.994110 
	C476.857574,456.044800 481.867676,446.162048 485.733307,435.883118 
	C488.266327,429.147705 489.258728,421.840637 491.096283,414.830292 
	C491.530457,413.174011 492.588989,411.681396 493.734192,410.037598 
	C495.357086,410.755188 496.606079,411.548706 497.685669,412.893250 
	C494.836884,425.641357 493.903839,438.598053 489.016144,449.834595 
	C483.472107,462.580170 484.202087,475.186035 484.044220,488.115173 
	C480.074677,489.076538 476.119110,490.794128 472.133179,490.867645 
	C455.400909,491.176270 438.659576,490.992950 421.458344,490.911560 
z"/>
<path fill="#FDE895" opacity="1.000000" stroke="none" 
	d="
M304.999237,164.001831 
	C313.995544,165.571930 320.461151,161.058823 326.361664,155.144318 
	C335.520691,145.963531 345.065430,137.133865 353.760498,127.533859 
	C361.723206,118.742416 369.854340,109.801292 372.638031,97.628632 
	C372.785309,96.984558 372.884735,96.329529 373.024902,95.283005 
	C376.135254,95.874969 379.227142,96.863541 382.657684,98.401459 
	C380.247650,111.516853 374.152405,122.729073 366.484467,132.602631 
	C357.168945,144.597672 346.485107,155.588684 335.846558,166.480057 
	C326.403595,176.147400 315.133148,181.785660 300.761719,177.828827 
	C300.347321,177.103745 300.173645,176.550949 300.038055,175.652252 
	C301.065369,174.022339 301.930145,172.612915 303.070526,171.481201 
	C305.241272,169.326965 306.359253,167.013855 304.999237,164.001831 
z"/>
<path fill="#FDE286" opacity="1.000000" stroke="none" 
	d="
M388.043396,100.891335 
	C390.613525,102.003426 393.183685,103.115517 395.887817,104.983932 
	C395.580719,108.324081 395.481293,111.026169 394.635498,113.469917 
	C391.903381,121.363617 388.896790,129.162292 385.658569,137.052002 
	C379.548370,144.175186 374.085968,151.528290 367.931641,158.247620 
	C358.139923,168.938339 348.299438,179.653748 337.658539,189.468552 
	C332.175659,194.525742 325.057312,198.001785 316.591339,198.002151 
	C310.456207,196.334366 304.728699,194.668701 298.967590,192.671341 
	C297.955536,190.892487 296.977173,189.445328 296.255249,187.727081 
	C299.008636,186.970657 301.505554,186.485321 304.428772,186.000137 
	C306.323151,186.197372 307.792145,186.387787 309.259064,186.592712 
	C317.165680,187.697281 325.087799,188.273117 332.326874,184.053879 
	C347.020599,175.489746 357.123779,162.184464 366.569885,148.687637 
	C376.671997,134.253448 382.835846,117.705376 388.043396,100.891335 
z"/>
<path fill="#FDE68C" opacity="1.000000" stroke="none" 
	d="
M387.904785,100.581551 
	C382.835846,117.705376 376.671997,134.253448 366.569885,148.687637 
	C357.123779,162.184464 347.020599,175.489746 332.326874,184.053879 
	C325.087799,188.273117 317.165680,187.697281 309.259064,186.592712 
	C307.792145,186.387787 306.323151,186.197372 304.386658,185.638397 
	C302.946289,182.851379 301.974365,180.426239 301.002441,178.001114 
	C315.133148,181.785660 326.403595,176.147400 335.846558,166.480057 
	C346.485107,155.588684 357.168945,144.597672 366.484467,132.602631 
	C374.152405,122.729073 380.247650,111.516853 382.996948,98.560417 
	C384.587158,98.870605 386.176666,99.571190 387.904785,100.581551 
z"/>
<path fill="#CEE7FC" opacity="1.000000" stroke="none" 
	d="
M162.020538,293.993347 
	C165.014908,301.729889 167.997757,309.468201 170.989685,317.603241 
	C167.356888,315.520538 163.651199,313.129150 160.084473,310.545898 
	C146.852814,300.962708 133.789917,291.141357 120.425758,281.747894 
	C109.317497,273.940033 97.836601,266.664215 86.604630,259.029327 
	C83.273575,256.765045 80.226677,254.082703 77.005791,251.236511 
	C83.530823,250.653915 90.099632,250.426758 96.548004,250.596832 
	C95.743706,251.213531 95.059860,251.432983 93.698334,251.869919 
	C95.652351,253.266434 96.927254,254.263519 98.283508,255.133850 
	C114.833786,265.754639 131.336395,276.451843 147.995163,286.899963 
	C152.408981,289.668243 157.312744,291.655334 161.991562,294.001099 
	C161.991562,294.001099 162.009033,293.995056 162.020538,293.993347 
z"/>
<path fill="#FDE399" opacity="1.000000" stroke="none" 
	d="
M304.784668,163.724380 
	C306.359253,167.013855 305.241272,169.326965 303.070526,171.481201 
	C301.930145,172.612915 301.065369,174.022339 299.662262,175.646744 
	C297.133972,175.096390 294.871948,174.449936 292.928558,173.276016 
	C278.126190,164.334579 266.703186,151.671875 255.288910,138.986465 
	C253.814743,137.348145 251.696747,136.289154 249.876999,134.961792 
	C252.000137,132.047058 254.123276,129.132309 256.563202,126.088211 
	C258.311401,127.523468 259.748688,129.082703 261.173279,130.653503 
	C273.570038,144.322845 286.471100,157.323914 304.784668,163.724380 
z"/>
<path fill="#FDDB8F" opacity="1.000000" stroke="none" 
	d="
M249.566406,135.097519 
	C251.696747,136.289154 253.814743,137.348145 255.288910,138.986465 
	C266.703186,151.671875 278.126190,164.334579 292.928558,173.276016 
	C294.871948,174.449936 297.133972,175.096390 299.624207,175.992645 
	C300.173645,176.550949 300.347321,177.103745 300.761719,177.828827 
	C301.974365,180.426239 302.946289,182.851379 303.960327,185.638245 
	C301.505554,186.485321 299.008636,186.970657 295.906433,187.688477 
	C275.574738,175.681290 260.889709,158.151825 245.950592,140.888931 
	C247.052338,139.003708 248.154083,137.118469 249.566406,135.097519 
z"/>
<path fill="#C0DFF9" opacity="1.000000" stroke="none" 
	d="
M161.842804,293.697174 
	C157.312744,291.655334 152.408981,289.668243 147.995163,286.899963 
	C131.336395,276.451843 114.833786,265.754639 98.283508,255.133850 
	C96.927254,254.263519 95.652351,253.266434 93.698334,251.869919 
	C95.059860,251.432983 95.743706,251.213531 96.772369,250.978027 
	C100.800774,251.537796 104.484367,252.113602 108.537285,252.822220 
	C117.725258,256.882263 126.543907,260.809479 135.678864,264.880981 
	C146.584183,272.648804 154.801224,282.421204 161.842804,293.697174 
z"/>
<path fill="#FDA837" opacity="1.000000" stroke="none" 
	d="
M440.051117,158.893173 
	C442.033356,165.284988 445.090271,171.566864 445.757874,178.093170 
	C446.893555,189.195068 446.525787,200.450775 446.404358,211.441559 
	C445.857605,209.223495 445.696320,207.205688 445.535034,205.187897 
	C444.815552,204.723938 444.096100,204.259979 443.376617,203.796021 
	C442.512665,205.329468 441.925140,207.139389 440.726410,208.338043 
	C438.327972,210.736359 435.594910,212.800018 432.945007,214.592712 
	C432.259613,205.455093 431.629211,196.726639 431.007141,187.606598 
	C432.991333,179.912323 434.869019,172.580780 437.001495,165.324097 
	C437.662170,163.075882 439.015106,161.031097 440.051117,158.893173 
z"/>
<path fill="#FBC04E" opacity="1.000000" stroke="none" 
	d="
M445.040222,218.104355 
	C444.601349,220.960037 444.162506,223.815720 443.286621,226.441086 
	C441.837708,226.395859 440.516083,226.244949 439.876831,226.834259 
	C438.434540,228.163910 437.460663,229.990204 436.067932,231.386780 
	C415.560577,251.950653 395.028229,272.489685 374.449097,292.981659 
	C373.214050,294.211456 371.534271,294.994659 369.750946,295.887939 
	C368.309052,295.151154 367.177673,294.512115 366.010834,293.671570 
	C365.975372,293.470032 365.900574,293.067383 366.205627,292.910767 
	C371.339478,287.835266 376.168274,282.916412 381.265564,277.805542 
	C396.688293,262.075897 411.842529,246.538254 427.296631,230.852051 
	C433.010651,225.513412 438.424774,220.323303 444.320435,214.671570 
	C444.662079,216.300980 444.851166,217.202667 445.040222,218.104355 
z"/>
<path fill="#FDD386" opacity="1.000000" stroke="none" 
	d="
M245.625214,141.043762 
	C260.889709,158.151825 275.574738,175.681290 295.649933,187.959564 
	C296.977173,189.445328 297.955536,190.892487 298.555206,192.672333 
	C295.268738,193.742386 292.360962,194.479736 289.191650,195.068848 
	C286.003204,192.119949 283.076355,189.319290 280.049225,186.213120 
	C276.990387,183.536850 274.031799,181.166092 270.886444,178.523621 
	C268.461029,176.837219 266.222351,175.422501 263.790344,173.745026 
	C261.729858,172.312973 259.862732,171.143677 257.990601,169.608765 
	C254.034653,161.377655 248.190125,155.167770 241.157593,149.996597 
	C242.538345,147.063934 243.919098,144.131256 245.625214,141.043762 
z"/>
<path fill="#A9D5FB" opacity="1.000000" stroke="none" 
	d="
M484.425262,488.065918 
	C484.202087,475.186035 483.472107,462.580170 489.016144,449.834595 
	C493.903839,438.598053 494.836884,425.641357 497.811523,413.200836 
	C499.679260,414.419891 501.251709,415.882324 502.451538,417.738892 
	C501.386169,419.652039 500.330780,421.111481 500.069489,422.701447 
	C499.321289,427.253723 499.085205,431.891510 498.306702,436.437256 
	C496.038849,449.679352 494.106720,462.944275 495.081055,476.426636 
	C495.195190,478.005890 496.411407,479.505524 497.116699,481.042053 
	C493.013214,483.366913 488.909760,485.691772 484.425262,488.065918 
z"/>
<path fill="#FBC04E" opacity="1.000000" stroke="none" 
	d="
M419.951752,125.198898 
	C422.577850,128.570374 425.203949,131.941849 427.652954,135.796692 
	C426.569916,137.985672 425.415161,139.606445 424.800201,141.411163 
	C421.789093,150.247620 418.921783,159.133087 415.653809,168.040787 
	C412.604523,171.907852 409.965973,175.780136 407.189941,179.551193 
	C403.857666,184.077911 400.408264,188.518372 397.007965,192.573578 
	C396.672943,189.432526 396.339508,186.714050 396.160217,183.691559 
	C402.358337,171.299744 408.904541,159.428528 414.247437,147.038406 
	C417.192566,140.208633 418.116577,132.507309 419.951752,125.198898 
z"/>
<path fill="#C0DFF9" opacity="1.000000" stroke="none" 
	d="
M451.995728,404.982635 
	C450.229065,405.960327 448.462433,406.938049 446.302795,407.575256 
	C445.275543,405.179535 444.662048,403.117676 444.003784,401.070160 
	C439.149994,385.972198 434.377441,370.847290 429.393372,355.792389 
	C426.435242,346.857117 423.139252,338.033661 419.995178,329.159943 
	C422.615387,330.194305 425.235626,331.228668 427.713440,332.842468 
	C427.730530,335.315277 427.494171,337.352844 428.121857,339.075623 
	C430.217407,344.827118 432.814117,350.397400 434.872375,356.160828 
	C440.672546,372.401794 446.300140,388.704346 451.995728,404.982635 
z"/>
<path fill="#FBCF24" opacity="1.000000" stroke="none" 
	d="
M464.101135,76.950890 
	C467.030518,81.720428 466.625732,86.783936 462.909241,90.541862 
	C456.955200,96.562363 450.968414,102.550835 444.964142,108.521324 
	C440.138489,113.319809 435.810669,113.934479 429.426941,110.331024 
	C439.480652,99.975365 449.368408,90.100914 459.341736,80.313660 
	C460.710266,78.970673 462.504181,78.061119 464.101135,76.950890 
z"/>
<path fill="#FDD36D" opacity="1.000000" stroke="none" 
	d="
M404.041382,110.887665 
	C405.958099,112.349289 407.874817,113.810905 409.862732,115.973267 
	C404.955933,131.115601 399.977966,145.557190 394.650604,160.038269 
	C391.200775,161.718719 388.100372,163.359650 385.007446,164.614304 
	C387.009521,158.485138 389.004150,152.742264 391.267761,146.753433 
	C392.363037,143.994888 393.140839,141.465118 394.024200,138.972794 
	C397.344635,129.604477 400.699463,120.248352 404.041382,110.887665 
z"/>
<path fill="#FBCF24" opacity="1.000000" stroke="none" 
	d="
M247.080795,111.059265 
	C241.064468,114.436142 236.044357,112.246452 231.606674,108.024437 
	C226.439255,103.108170 221.470901,97.982262 216.430878,92.932632 
	C211.637741,88.130356 210.664108,82.567291 213.696136,76.437630 
	C224.046341,86.457947 233.914429,96.342606 243.697342,106.310852 
	C245.041946,107.680916 245.963425,109.466209 247.080795,111.059265 
z"/>
<path fill="#B5D8F7" opacity="1.000000" stroke="none" 
	d="
M452.350891,404.947693 
	C446.300140,388.704346 440.672546,372.401794 434.872375,356.160828 
	C432.814117,350.397400 430.217407,344.827118 428.121857,339.075623 
	C427.494171,337.352844 427.730530,335.315277 427.865021,333.182220 
	C430.438690,334.708496 432.718414,336.474487 434.768829,338.829956 
	C434.566559,340.677277 434.242645,342.072449 434.673035,343.172455 
	C441.419403,360.414856 448.215057,377.638672 455.176941,394.794708 
	C455.722717,396.139740 457.583710,396.951050 458.833466,398.010376 
	C458.839844,399.065094 458.846252,400.119781 458.905579,401.568665 
	C456.874359,402.946106 454.790222,403.929443 452.350891,404.947693 
z"/>
<path fill="#CEE7FC" opacity="1.000000" stroke="none" 
	d="
M419.689087,329.031708 
	C423.139252,338.033661 426.435242,346.857117 429.393372,355.792389 
	C434.377441,370.847290 439.149994,385.972198 444.003784,401.070160 
	C444.662048,403.117676 445.275543,405.179535 445.956909,407.612427 
	C440.552704,412.262634 440.188965,412.139404 438.909332,405.428101 
	C434.491364,382.257416 426.999847,360.020233 418.606415,338.043457 
	C417.381836,334.837006 416.848114,331.366638 415.993958,327.616852 
	C417.123108,327.778015 418.253052,328.340729 419.689087,329.031708 
z"/>
<path fill="#FDD979" opacity="1.000000" stroke="none" 
	d="
M403.910278,110.573967 
	C400.699463,120.248352 397.344635,129.604477 394.024200,138.972794 
	C393.140839,141.465118 392.363037,143.994888 390.922424,146.791626 
	C387.979492,149.526413 385.703857,152.030609 383.301361,154.406509 
	C381.977692,155.715500 380.440796,156.808838 379.007080,157.615295 
	C381.341431,150.486649 383.668701,143.742126 385.995941,136.997589 
	C388.896790,129.162292 391.903381,121.363617 394.635498,113.469917 
	C395.481293,111.026169 395.580719,108.324081 396.037689,105.306656 
	C398.628723,106.668777 401.203949,108.464523 403.910278,110.573967 
z"/>
<path fill="#FDEEAA" opacity="1.000000" stroke="none" 
	d="
M335.979706,71.829575 
	C330.046326,70.282150 327.018585,66.664566 327.002716,61.003105 
	C326.979095,52.575417 327.284332,44.134598 326.904083,35.724030 
	C326.608521,29.186457 329.544373,25.332956 335.622864,23.558813 
	C335.984467,40.000935 335.982086,55.915257 335.979706,71.829575 
z"/>
<path fill="#FDEEAA" opacity="1.000000" stroke="none" 
	d="
M219.039902,71.160149 
	C224.431992,68.573647 229.168259,70.264496 233.046356,74.029739 
	C239.611740,80.404037 246.235825,86.810928 251.948212,93.917145 
	C253.794586,96.214027 252.857498,100.748428 252.682556,104.586746 
	C251.604263,104.591881 250.931549,104.375641 250.485413,103.931679 
	C240.516678,94.011238 230.557770,84.080727 220.654312,74.095276 
	C219.898285,73.333008 219.568039,72.148438 219.039902,71.160149 
z"/>
<path fill="#FDB13E" opacity="1.000000" stroke="none" 
	d="
M440.027283,158.510910 
	C439.015106,161.031097 437.662170,163.075882 437.001495,165.324097 
	C434.869019,172.580780 432.991333,179.912323 430.604370,187.607285 
	C427.129669,188.999893 424.066071,190.000259 421.011536,190.595062 
	C422.014191,184.793625 423.007690,179.397720 424.149536,173.665466 
	C426.731140,165.812424 429.069214,158.262405 431.679504,150.807678 
	C432.190186,149.349243 433.755981,148.260269 434.835144,147.000916 
	C436.557922,150.710159 438.280701,154.419403 440.027283,158.510910 
z"/>
<path fill="#FDCC63" opacity="1.000000" stroke="none" 
	d="
M395.000000,159.998779 
	C399.977966,145.557190 404.955933,131.115601 409.989380,116.281647 
	C410.209930,115.927498 410.375031,115.965721 410.914001,116.274605 
	C411.517700,116.763496 411.788452,116.901619 412.100067,116.959625 
	C414.335693,119.085075 416.571320,121.210533 418.471497,123.721497 
	C417.105560,125.509033 415.788177,126.781845 415.089417,128.333282 
	C408.997162,141.859924 403.015656,155.436462 396.656372,169.033737 
	C395.207275,169.379929 394.103027,169.690552 393.007172,169.609009 
	C393.677032,166.144165 394.338501,163.071472 395.000000,159.998779 
z"/>
<path fill="#B2D8FA" opacity="1.000000" stroke="none" 
	d="
M366.046326,293.873077 
	C367.177673,294.512115 368.309052,295.151154 369.884888,296.177094 
	C371.189392,297.119385 372.049438,297.674805 373.055389,298.496368 
	C374.080261,299.178741 374.959259,299.594971 375.838257,300.011200 
	C376.189636,300.477722 376.540985,300.944244 376.503662,301.764282 
	C375.140533,303.725800 373.532776,305.248077 373.301514,306.956635 
	C372.311859,314.269043 371.728027,321.636383 370.996185,328.983673 
	C366.897827,331.301636 362.799500,333.619568 358.351746,335.566040 
	C358.347382,332.916046 358.600922,330.619171 359.052856,328.362030 
	C361.355774,316.860046 363.710022,305.368378 366.046326,293.873077 
z"/>
<path fill="#FDEEAA" opacity="1.000000" stroke="none" 
	d="
M424.894226,105.058754 
	C423.199768,99.833832 423.150848,95.029198 427.577332,90.843262 
	C432.761353,85.940979 437.824982,80.897812 442.719818,75.707314 
	C447.242645,70.911232 452.253021,68.620560 458.620728,71.754318 
	C456.714203,73.957939 454.908875,75.646797 453.142639,77.375633 
	C443.721100,86.597824 434.309357,95.830009 424.894226,105.058754 
z"/>
<path fill="#FDCA5A" opacity="1.000000" stroke="none" 
	d="
M397.001221,168.998169 
	C403.015656,155.436462 408.997162,141.859924 415.089417,128.333282 
	C415.788177,126.781845 417.105560,125.509033 418.481354,124.053452 
	C419.031311,124.314354 419.236023,124.628830 419.696228,125.071098 
	C418.116577,132.507309 417.192566,140.208633 414.247437,147.038406 
	C408.904541,159.428528 402.358337,171.299744 395.901489,183.801758 
	C394.991974,184.477112 394.495392,184.738251 393.999329,184.578262 
	C395.000305,179.104141 396.000763,174.051147 397.001221,168.998169 
z"/>
<path fill="#FDB543" opacity="1.000000" stroke="none" 
	d="
M434.804810,146.647827 
	C433.755981,148.260269 432.190186,149.349243 431.679504,150.807678 
	C429.069214,158.262405 426.731140,165.812424 423.747009,173.674683 
	C420.800262,174.348267 418.404419,174.676270 416.006714,174.566528 
	C416.004456,172.086258 416.004059,170.043747 416.003662,168.001221 
	C418.921783,159.133087 421.789093,150.247620 424.800201,141.411163 
	C425.415161,139.606445 426.569916,137.985672 427.797791,136.118042 
	C430.337982,139.402267 432.556213,142.848511 434.804810,146.647827 
z"/>
<path fill="#A0CDF7" opacity="1.000000" stroke="none" 
	d="
M497.424896,480.923462 
	C496.411407,479.505524 495.195190,478.005890 495.081055,476.426636 
	C494.106720,462.944275 496.038849,449.679352 498.306702,436.437256 
	C499.085205,431.891510 499.321289,427.253723 500.069489,422.701447 
	C500.330780,421.111481 501.386169,419.652039 502.454224,418.064728 
	C504.160919,419.434418 505.492340,420.872375 506.836670,422.654297 
	C505.898865,423.999298 504.203125,424.936096 504.110413,426.011108 
	C502.939697,439.586395 501.864624,453.174286 501.131866,466.778717 
	C501.006653,469.103607 502.596832,471.520905 503.775391,473.974640 
	C502.015167,476.304138 499.874115,478.554504 497.424896,480.923462 
z"/>
<path fill="#FDE689" opacity="1.000000" stroke="none" 
	d="
M218.693451,71.153809 
	C219.568039,72.148438 219.898285,73.333008 220.654312,74.095276 
	C230.557770,84.080727 240.516678,94.011238 250.485413,103.931679 
	C250.931549,104.375641 251.604263,104.591881 252.504745,104.958710 
	C251.148682,106.991737 249.459335,108.980255 247.425385,111.014015 
	C245.963425,109.466209 245.041946,107.680916 243.697342,106.310852 
	C233.914429,96.342606 224.046341,86.457947 214.042633,76.249115 
	C215.369049,74.350075 216.858017,72.748779 218.693451,71.153809 
z"/>
<path fill="#FDCC63" opacity="1.000000" stroke="none" 
	d="
M372.909515,298.230194 
	C372.049438,297.674805 371.189392,297.119385 370.195374,296.274841 
	C371.534271,294.994659 373.214050,294.211456 374.449097,292.981659 
	C395.028229,272.489685 415.560577,251.950653 436.067932,231.386780 
	C437.460663,229.990204 438.434540,228.163910 439.876831,226.834259 
	C440.516083,226.244949 441.837708,226.395859 442.900330,226.511230 
	C442.544098,228.755219 442.137146,230.698730 441.296997,232.434967 
	C440.359924,232.053406 439.553894,231.585434 439.396301,231.747620 
	C434.992126,236.279312 430.738312,240.958893 426.287903,245.443573 
	C414.376465,257.446533 402.416840,269.402130 390.412415,281.312103 
	C384.652618,287.026581 378.748322,292.595398 372.909515,298.230194 
z"/>
<path fill="#FDE689" opacity="1.000000" stroke="none" 
	d="
M424.939514,105.418579 
	C434.309357,95.830009 443.721100,86.597824 453.142639,77.375633 
	C454.908875,75.646797 456.714203,73.957939 458.808105,72.103363 
	C460.735535,73.392220 462.356415,74.828362 464.039215,76.607697 
	C462.504181,78.061119 460.710266,78.970673 459.341736,80.313660 
	C449.368408,90.100914 439.480652,99.975365 429.269470,109.988251 
	C427.643677,108.695625 426.314270,107.237015 424.939514,105.418579 
z"/>
<path fill="#A6CDF2" opacity="1.000000" stroke="none" 
	d="
M458.912964,397.585144 
	C457.583710,396.951050 455.722717,396.139740 455.176941,394.794708 
	C448.215057,377.638672 441.419403,360.414856 434.673035,343.172455 
	C434.242645,342.072449 434.566559,340.677277 434.821869,339.188049 
	C438.064209,341.397339 441.024200,343.838074 443.631592,346.495941 
	C439.088501,346.102142 441.943634,348.602692 442.261505,349.410461 
	C446.851746,361.075226 451.541931,372.700928 456.272400,384.309814 
	C456.624756,385.174561 457.466309,385.839966 458.686279,387.345825 
	C458.850952,384.798462 458.945312,383.338562 459.039673,381.878693 
	C459.023926,386.972443 459.008179,392.066162 458.912964,397.585144 
z"/>
<path fill="#FAC877" opacity="1.000000" stroke="none" 
	d="
M373.055389,298.496368 
	C378.748322,292.595398 384.652618,287.026581 390.412415,281.312103 
	C402.416840,269.402130 414.376465,257.446533 426.287903,245.443573 
	C430.738312,240.958893 434.992126,236.279312 439.396301,231.747620 
	C439.553894,231.585434 440.359924,232.053406 440.915039,232.516205 
	C440.212555,235.442993 439.458771,238.081284 438.308197,240.581116 
	C437.033997,240.379684 435.750519,239.914886 435.347992,240.321732 
	C433.377838,242.313004 431.776581,244.669876 429.802307,246.656372 
	C416.451080,260.090393 403.069092,273.494293 389.620300,286.830536 
	C386.877197,289.550629 383.808228,291.942139 380.087433,295.183868 
	C382.290192,295.643127 383.188904,295.830505 384.087616,296.017883 
	C381.450165,297.124390 378.812744,298.230927 376.006775,299.674316 
	C374.959259,299.594971 374.080261,299.178741 373.055389,298.496368 
z"/>
<path fill="#FDD386" opacity="1.000000" stroke="none" 
	d="
M384.418457,295.888275 
	C383.188904,295.830505 382.290192,295.643127 380.087433,295.183868 
	C383.808228,291.942139 386.877197,289.550629 389.620300,286.830536 
	C403.069092,273.494293 416.451080,260.090393 429.802307,246.656372 
	C431.776581,244.669876 433.377838,242.313004 435.347992,240.321732 
	C435.750519,239.914886 437.033997,240.379684 437.968506,240.758270 
	C436.910889,243.631104 435.796143,246.188339 433.998596,248.890152 
	C432.697357,249.216003 431.886139,249.205841 431.488403,249.606323 
	C419.015076,262.164673 406.563843,274.745209 394.178009,287.389740 
	C393.208862,288.379150 392.739563,289.858185 392.037933,291.109650 
	C389.608398,292.659332 387.178833,294.208984 384.418457,295.888275 
z"/>
<path fill="#FDEEAA" opacity="1.000000" stroke="none" 
	d="
M433.016357,282.168365 
	C437.683350,281.229858 441.848297,282.764496 445.119019,285.760101 
	C451.104431,291.242065 457.105499,296.821198 462.238831,303.067566 
	C464.552917,305.883362 464.798523,310.399078 465.574188,314.522308 
	C464.597809,314.579010 463.923950,314.363373 463.477539,313.919189 
	C453.847687,304.337952 444.227966,294.746338 434.663116,285.100342 
	C433.902313,284.333099 433.555542,283.155334 433.016357,282.168365 
z"/>
<path fill="#FDDB8F" opacity="1.000000" stroke="none" 
	d="
M392.401917,291.053894 
	C392.739563,289.858185 393.208862,288.379150 394.178009,287.389740 
	C406.563843,274.745209 419.015076,262.164673 431.488403,249.606323 
	C431.886139,249.205841 432.697357,249.216003 433.676971,249.040802 
	C430.240295,254.964371 427.038879,261.396484 422.491272,266.667023 
	C417.007843,273.022217 410.588959,278.635651 404.165283,284.087372 
	C400.819977,286.926483 396.594025,288.727936 392.401917,291.053894 
z"/>
<path fill="#FAC702" opacity="1.000000" stroke="none" 
	d="
M455.042999,323.835175 
	C450.048004,324.723419 446.156891,322.766846 442.748688,319.266327 
	C438.105865,314.497711 433.403168,309.784363 428.625702,305.150848 
	C425.383484,302.006348 423.549194,298.394653 424.421692,293.436584 
	C434.759155,302.854736 444.696503,312.627045 454.603302,322.430237 
	C454.911499,322.735229 454.903564,323.359650 455.042999,323.835175 
z"/>
<path fill="#96C6F3" opacity="1.000000" stroke="none" 
	d="
M459.018738,381.451416 
	C458.945312,383.338562 458.850952,384.798462 458.686279,387.345825 
	C457.466309,385.839966 456.624756,385.174561 456.272400,384.309814 
	C451.541931,372.700928 446.851746,361.075226 442.261505,349.410461 
	C441.943634,348.602692 439.088501,346.102142 443.554443,346.845764 
	C453.332764,356.345886 457.994385,367.870117 459.018738,381.451416 
z"/>
<path fill="#A9D5FB" opacity="1.000000" stroke="none" 
	d="
M371.369324,328.944122 
	C371.728027,321.636383 372.311859,314.269043 373.301514,306.956635 
	C373.532776,305.248077 375.140533,303.725800 376.474701,302.059570 
	C379.169342,304.442139 381.504242,306.882996 383.603577,309.718506 
	C382.599884,311.303680 381.341278,312.422180 381.154022,313.697968 
	C380.556000,317.771881 380.355713,321.904205 380.001831,326.013977 
	C377.248718,326.977509 374.495575,327.941040 371.369324,328.944122 
z"/>
<path fill="#FAC702" opacity="1.000000" stroke="none" 
	d="
M467.039856,205.376373 
	C481.230042,205.028748 495.566833,205.007858 510.360382,204.978638 
	C508.100403,208.988678 503.867401,209.829895 499.533508,209.946167 
	C492.248138,210.141632 484.912903,210.455231 477.680420,209.806778 
	C474.088623,209.484741 470.678650,207.135345 467.039856,205.376373 
z"/>
<path fill="#FAC877" opacity="1.000000" stroke="none" 
	d="
M241.000092,150.328308 
	C248.190125,155.167770 254.034653,161.377655 257.680725,169.533020 
	C256.580780,169.561600 255.785690,169.300369 254.755508,168.793213 
	C252.680222,167.783432 250.840042,167.019592 248.999847,166.255753 
	C246.916809,165.502609 244.833786,164.749466 242.377747,163.988037 
	C240.096420,163.164368 238.188095,162.348969 236.075378,161.243362 
	C237.528183,157.522125 239.185379,154.091080 241.000092,150.328308 
z"/>
<path fill="#FCDE71" opacity="1.000000" stroke="none" 
	d="
M463.103729,320.064758 
	C461.984070,321.042175 460.864380,322.019592 459.352570,322.683655 
	C458.549133,321.669403 458.262939,320.844147 457.708038,320.286011 
	C447.925354,310.446167 438.128082,300.620514 428.270386,290.855957 
	C427.386963,289.980896 426.066132,289.547485 424.948425,288.908936 
	C425.739746,287.653381 426.531036,286.397797 427.778259,285.324615 
	C439.857330,297.026245 451.480530,308.545502 463.103729,320.064758 
z"/>
<path fill="#FDB543" opacity="1.000000" stroke="none" 
	d="
M445.389130,217.907822 
	C444.851166,217.202667 444.662079,216.300980 444.320435,214.671570 
	C438.424774,220.323303 433.010651,225.513412 427.297852,230.463013 
	C427.664490,227.815521 428.329803,225.408508 429.034973,222.653229 
	C430.383240,219.870560 431.691620,217.436188 433.000000,215.001831 
	C435.594910,212.800018 438.327972,210.736359 440.726410,208.338043 
	C441.925140,207.139389 442.512665,205.329468 443.376617,203.796021 
	C444.096100,204.259979 444.815552,204.723938 445.535034,205.187897 
	C445.696320,207.205688 445.857605,209.223495 446.032257,211.676651 
	C445.943085,213.978439 445.840576,215.844864 445.389130,217.907822 
z"/>
<path fill="#FBCD42" opacity="1.000000" stroke="none" 
	d="
M424.611633,289.081909 
	C426.066132,289.547485 427.386963,289.980896 428.270386,290.855957 
	C438.128082,300.620514 447.925354,310.446167 457.708038,320.286011 
	C458.262939,320.844147 458.549133,321.669403 459.017822,322.714417 
	C457.974823,323.363678 456.874451,323.668823 455.408539,323.904572 
	C454.903564,323.359650 454.911499,322.735229 454.603302,322.430237 
	C444.696503,312.627045 434.759155,302.854736 424.495575,293.018005 
	C424.201447,291.723785 424.238129,290.489349 424.611633,289.081909 
z"/>
<path fill="#FAC702" opacity="1.000000" stroke="none" 
	d="
M347.018494,25.863958 
	C348.345490,28.830639 350.607208,31.732822 350.817230,34.776581 
	C351.360718,42.652798 351.327728,50.611362 350.849274,58.496037 
	C350.637268,61.989342 348.793396,65.383614 347.343658,68.502075 
	C347.004181,54.075527 347.011322,39.969746 347.018494,25.863958 
z"/>
<path fill="#FDE689" opacity="1.000000" stroke="none" 
	d="
M336.351593,71.908264 
	C335.982086,55.915257 335.984467,40.000935 335.982544,23.628918 
	C336.732880,23.120691 337.487518,23.070164 338.617981,23.551338 
	C338.992035,39.999660 338.990204,55.916279 338.988403,71.832901 
	C338.233429,71.884254 337.478455,71.935608 336.351593,71.908264 
z"/>
<path fill="#FDEBA1" opacity="1.000000" stroke="none" 
	d="
M432.696747,282.153320 
	C433.555542,283.155334 433.902313,284.333099 434.663116,285.100342 
	C444.227966,294.746338 453.847687,304.337952 463.477539,313.919189 
	C463.923950,314.363373 464.597809,314.579010 465.498291,314.941925 
	C465.453796,315.925079 465.076752,316.867371 464.098022,317.783813 
	C452.314148,306.467926 441.131958,295.177887 429.949768,283.887848 
	C430.758911,283.304657 431.568024,282.721466 432.696747,282.153320 
z"/>
<path fill="#96C6F3" opacity="1.000000" stroke="none" 
	d="
M380.422119,326.003815 
	C380.355713,321.904205 380.556000,317.771881 381.154022,313.697968 
	C381.341278,312.422180 382.599884,311.303680 383.748749,310.039795 
	C386.753479,314.367340 389.377563,318.768341 392.021484,323.538452 
	C388.308380,324.602905 384.575409,325.298279 380.422119,326.003815 
z"/>
<path fill="#FDE68C" opacity="1.000000" stroke="none" 
	d="
M429.645782,283.938568 
	C441.131958,295.177887 452.314148,306.467926 463.802612,317.906189 
	C463.964691,318.645416 463.820526,319.236481 463.390045,319.946136 
	C451.480530,308.545502 439.857330,297.026245 428.088989,285.198975 
	C428.409851,284.590393 428.875824,284.289856 429.645782,283.938568 
z"/>
<path fill="#FCD65A" opacity="1.000000" stroke="none" 
	d="
M340.993622,23.162497 
	C341.932770,23.199039 342.871887,23.235582 343.653564,23.894003 
	C343.361542,39.483669 343.216064,54.451397 343.136169,69.419479 
	C343.133209,69.968361 343.772156,70.520676 344.111969,71.071388 
	C343.308380,71.376282 342.504822,71.681175 341.349731,71.453476 
	C340.996674,55.001415 340.995148,39.081955 340.993622,23.162497 
z"/>
<path fill="#FCDE71" opacity="1.000000" stroke="none" 
	d="
M340.661621,23.090572 
	C340.995148,39.081955 340.996674,55.001415 340.995789,71.379066 
	C340.545837,71.886009 340.098297,71.934761 339.319580,71.908203 
	C338.990204,55.916279 338.992035,39.999660 338.990692,23.625107 
	C339.434875,23.117666 339.882233,23.068157 340.661621,23.090572 
z"/>
<path fill="#FBCD42" opacity="1.000000" stroke="none" 
	d="
M344.317230,71.031906 
	C343.772156,70.520676 343.133209,69.968361 343.136169,69.419479 
	C343.216064,54.451397 343.361542,39.483669 343.802246,24.220737 
	C344.108459,23.925596 344.531830,24.015163 344.748108,24.558336 
	C344.949005,40.353527 344.933624,55.605549 344.918213,70.857567 
	C344.918213,70.857567 344.522491,70.992432 344.317230,71.031906 
z"/>
<path fill="#FBCF24" opacity="1.000000" stroke="none" 
	d="
M345.218475,70.908089 
	C344.933624,55.605549 344.949005,40.353527 344.946350,24.645056 
	C345.559113,24.564192 346.189911,24.939781 346.919617,25.589664 
	C347.011322,39.969746 347.004181,54.075527 347.009521,68.659988 
	C346.520966,69.745308 346.019836,70.351959 345.218475,70.908089 
z"/>
<path fill="#FDD36D" opacity="1.000000" stroke="none" 
	d="
M412.016602,116.708450 
	C411.788452,116.901619 411.517700,116.763496 411.154419,116.357224 
	C411.325043,116.265205 411.629089,116.361237 412.016602,116.708450 
z"/>
<path fill="#D6EBFE" opacity="1.000000" stroke="none" 
	d="
M249.000244,166.648163 
	C250.840042,167.019592 252.680222,167.783432 254.758575,169.203583 
	C255.661530,172.566620 256.113403,175.347565 257.026917,177.967560 
	C261.653564,191.236938 266.732971,204.358170 271.007324,217.737808 
	C274.970734,230.144043 278.445343,242.731430 281.519653,255.388550 
	C283.849060,264.978760 285.119751,274.822357 287.070801,284.511078 
	C287.518707,286.735229 288.824615,288.786652 289.735687,290.917542 
	C292.490875,289.614532 295.246033,288.311523 298.405151,287.006653 
	C301.541840,286.332581 304.274628,285.660400 307.335327,284.960022 
	C308.474792,284.606018 309.286316,284.280304 310.503418,283.948608 
	C316.939423,283.357056 322.969818,282.771454 328.951172,282.521118 
	C327.546844,284.260162 326.420105,286.050446 324.800903,287.007751 
	C308.796570,296.469696 292.714417,305.800018 276.647034,315.155151 
	C243.937119,334.200348 211.211655,353.218842 178.513672,372.284515 
	C152.987717,387.168243 127.472031,402.069977 102.018532,417.076935 
	C99.442444,418.595734 97.327011,420.895844 94.997818,422.833405 
	C86.245934,422.289551 77.494041,421.745728 68.370506,421.017731 
	C68.768295,419.843658 69.332375,418.502563 70.337112,417.915039 
	C97.008965,402.318665 123.752686,386.845154 150.428040,371.254700 
	C174.662277,357.090973 198.809998,342.779236 223.036087,328.601501 
	C236.370346,320.797913 249.731079,313.035980 263.186523,305.444305 
	C272.680176,300.087921 277.132294,291.720825 276.064728,280.896545 
	C275.236237,272.496368 275.128632,264.004700 273.914124,255.668304 
	C272.490417,245.896255 270.999634,236.009933 268.140717,226.597595 
	C262.701202,208.689285 256.242981,191.091202 250.283661,173.338837 
	C249.606964,171.323013 249.416550,169.143936 249.000244,166.648163 
z"/>
<path fill="#CCE7FE" opacity="1.000000" stroke="none" 
	d="
M164.997177,422.833099 
	C153.306290,422.884857 141.615417,422.936615 129.509399,422.574127 
	C132.913788,419.352570 136.518951,416.179352 140.586899,413.796051 
	C171.543884,395.659302 202.608383,377.706238 233.605606,359.638000 
	C263.022186,342.491119 292.588135,325.587006 321.679077,307.902771 
	C330.769470,302.376770 339.397644,295.387848 342.418579,283.871643 
	C345.204651,284.590851 347.602448,285.317627 349.991821,286.432312 
	C346.838745,294.848267 344.667572,303.466736 340.262115,310.730042 
	C336.254120,317.338104 330.627991,323.655396 324.278870,328.003754 
	C312.387482,336.147919 299.437927,342.742249 286.963013,350.040161 
	C249.971588,371.680389 212.979187,393.319153 176.042023,415.051727 
	C172.173523,417.327881 168.670029,420.224426 164.997177,422.833099 
z"/>
<path fill="#D1E9FE" opacity="1.000000" stroke="none" 
	d="
M342.030273,283.879272 
	C339.397644,295.387848 330.769470,302.376770 321.679077,307.902771 
	C292.588135,325.587006 263.022186,342.491119 233.605606,359.638000 
	C202.608383,377.706238 171.543884,395.659302 140.586899,413.796051 
	C136.518951,416.179352 132.913788,419.352570 129.046326,422.496674 
	C117.973640,422.885040 106.948891,422.936646 95.460968,422.910828 
	C97.327011,420.895844 99.442444,418.595734 102.018532,417.076935 
	C127.472031,402.069977 152.987717,387.168243 178.513672,372.284515 
	C211.211655,353.218842 243.937119,334.200348 276.647034,315.155151 
	C292.714417,305.800018 308.796570,296.469696 324.800903,287.007751 
	C326.420105,286.050446 327.546844,284.260162 329.373688,282.460388 
	C333.906952,282.669342 337.968597,283.274323 342.030273,283.879272 
z"/>
<path fill="#C5E3FE" opacity="1.000000" stroke="none" 
	d="
M165.460327,422.910736 
	C168.670029,420.224426 172.173523,417.327881 176.042023,415.051727 
	C212.979187,393.319153 249.971588,371.680389 286.963013,350.040161 
	C299.437927,342.742249 312.387482,336.147919 324.278870,328.003754 
	C330.627991,323.655396 336.254120,317.338104 340.262115,310.730042 
	C344.667572,303.466736 346.838745,294.848267 350.351013,286.489319 
	C353.555328,287.413513 356.392029,288.668640 358.914429,290.131073 
	C358.122131,291.205078 357.483032,292.020966 357.190979,292.946350 
	C354.151031,302.577820 351.215485,312.242340 348.155853,321.867462 
	C343.639374,336.075623 334.506683,346.608521 321.794586,354.055267 
	C287.599030,374.087006 253.308319,393.956390 219.134872,414.025574 
	C214.844269,416.545319 211.030884,419.877716 206.996384,422.833557 
	C193.305420,422.885162 179.614441,422.936768 165.460327,422.910736 
z"/>
<path fill="#BDDFFE" opacity="1.000000" stroke="none" 
	d="
M207.459564,422.911316 
	C211.030884,419.877716 214.844269,416.545319 219.134872,414.025574 
	C253.308319,393.956390 287.599030,374.087006 321.794586,354.055267 
	C334.506683,346.608521 343.639374,336.075623 348.155853,321.867462 
	C351.215485,312.242340 354.151031,302.577820 357.190979,292.946350 
	C357.483032,292.020966 358.122131,291.205078 359.154816,290.228943 
	C360.135742,290.329651 360.561981,290.539734 361.295532,290.909668 
	C363.035431,291.735474 364.467987,292.401428 365.900574,293.067383 
	C365.900574,293.067383 365.975372,293.470032 366.010864,293.671570 
	C363.710022,305.368378 361.355774,316.860046 359.052856,328.362030 
	C358.600922,330.619171 358.347382,332.916046 358.004456,335.628662 
	C352.770569,341.739868 346.459290,346.773712 342.578186,353.261383 
	C338.002930,360.909393 335.312683,369.737518 332.268555,378.220306 
	C331.224976,381.128265 331.403656,384.161804 335.787964,385.531006 
	C346.758453,388.957184 355.171417,396.026001 361.642822,405.949738 
	C360.396698,406.217163 359.041199,406.208984 358.065765,405.596039 
	C346.853455,398.550690 335.657867,391.476624 324.549225,384.269348 
	C320.165527,381.425171 315.720703,381.237610 311.000000,383.000580 
	C307.843719,383.487671 304.687408,383.974762 300.908752,384.772644 
	C298.191101,386.055664 296.095825,387.027832 293.646057,388.038879 
	C285.240265,391.670197 278.715515,397.292389 273.901093,404.484406 
	C270.010773,410.295959 267.207947,416.835541 263.922729,423.052155 
	C245.256073,423.031128 226.589401,423.010132 207.459564,422.911316 
z"/>
<path fill="#E8F5FF" opacity="1.000000" stroke="none" 
	d="
M263.957764,423.483765 
	C267.207947,416.835541 270.010773,410.295959 273.901093,404.484406 
	C278.715515,397.292389 285.240265,391.670197 293.948456,388.191223 
	C296.220154,389.449036 297.744354,390.756683 299.464447,391.711426 
	C311.225189,398.239288 319.955048,407.730865 327.059265,419.300354 
	C325.671906,420.353912 324.591248,421.362183 323.346893,422.090912 
	C308.489075,430.792389 293.653748,439.534454 278.700317,448.069214 
	C274.621094,450.397522 270.167450,452.069733 265.885620,454.043030 
	C262.051788,445.057007 262.259308,435.787781 263.917297,426.407440 
	C264.060425,425.597626 263.973053,424.747040 263.957764,423.483765 
z"/>
<path fill="#E3F2FE" opacity="1.000000" stroke="none" 
	d="
M265.937317,454.425995 
	C270.167450,452.069733 274.621094,450.397522 278.700317,448.069214 
	C293.653748,439.534454 308.489075,430.792389 323.346893,422.090912 
	C324.591248,421.362183 325.671906,420.353912 327.059265,419.300354 
	C319.955048,407.730865 311.225189,398.239288 299.464447,391.711426 
	C297.744354,390.756683 296.220154,389.449036 294.302917,388.152344 
	C296.095825,387.027832 298.191101,386.055664 300.646393,385.049408 
	C305.912354,388.629547 310.835602,392.220612 315.720612,395.862915 
	C325.141235,402.886963 334.681274,409.763458 343.857758,417.094269 
	C346.434692,419.152893 348.549530,422.336395 349.754517,425.439545 
	C351.625427,430.257599 349.714233,433.323517 345.105408,435.990051 
	C328.581329,445.550262 312.116577,455.213440 295.662415,464.893829 
	C290.228638,468.090668 284.894836,471.457428 279.202637,474.896759 
	C272.369659,469.716187 268.640594,462.605988 265.937317,454.425995 
z"/>
<path fill="#24A4FE" opacity="1.000000" stroke="none" 
	d="
M24.887066,469.045227 
	C21.877794,462.167114 22.298721,459.285828 27.235159,454.276886 
	C32.462543,448.972778 37.875778,443.846741 42.984337,438.432068 
	C47.429935,433.720093 52.306904,431.451019 58.713875,434.875305 
	C57.831253,436.868652 57.057030,438.375122 55.920738,439.523285 
	C46.860222,448.678467 37.754738,457.789764 28.588858,466.839325 
	C27.596390,467.819183 26.132370,468.321442 24.887066,469.045227 
z"/>
<path fill="#24A4FE" opacity="1.000000" stroke="none" 
	d="
M196.166748,468.994324 
	C193.725357,464.092102 194.214340,458.928314 197.601425,455.217957 
	C204.040314,448.164459 211.148483,441.688721 218.297882,435.332031 
	C221.507172,432.478516 225.624252,432.036133 229.810287,434.905792 
	C229.440002,436.420776 229.059769,437.387390 228.387543,438.063812 
	C218.659836,447.852142 208.907745,457.616516 199.106613,467.331238 
	C198.335114,468.095947 197.156281,468.449615 196.166748,468.994324 
z"/>
<path fill="#24A4FE" opacity="1.000000" stroke="none" 
	d="
M110.958046,470.110321 
	C107.061996,463.878479 108.846855,458.132141 113.298416,453.362640 
	C118.800774,447.467346 125.087341,442.311890 130.768906,436.573273 
	C134.987091,432.312744 139.624969,432.483307 144.728439,434.852295 
	C142.808075,437.536194 140.863663,439.588623 138.886246,441.608704 
	C129.581833,451.114136 120.268326,460.610657 110.958046,470.110321 
z"/>
<path fill="#1C98FD" opacity="1.000000" stroke="none" 
	d="
M24.939240,469.393066 
	C26.132370,468.321442 27.596390,467.819183 28.588858,466.839325 
	C37.754738,457.789764 46.860222,448.678467 55.920738,439.523285 
	C57.057030,438.375122 57.831253,436.868652 58.912197,435.211487 
	C60.365002,435.997772 61.678844,437.100830 62.873474,438.855682 
	C52.906822,449.433228 43.029949,459.330139 33.246399,469.318481 
	C31.912298,470.680511 31.044397,472.499207 29.960651,474.106445 
	C28.304241,472.651276 26.647823,471.196106 24.939240,469.393066 
z"/>
<path fill="#0374FB" opacity="1.000000" stroke="none" 
	d="
M150.829681,443.990387 
	C151.762253,449.002899 149.712250,452.868866 146.247086,456.272034 
	C141.405960,461.026550 136.618332,465.836304 131.854431,470.668427 
	C128.668518,473.899902 124.983635,475.900269 120.187180,475.078125 
	C129.983459,464.328644 139.919464,454.253998 149.876343,444.200043 
	C150.068634,444.005890 150.506424,444.054840 150.829681,443.990387 
z"/>
<path fill="#1C98FD" opacity="1.000000" stroke="none" 
	d="
M196.169159,469.313385 
	C197.156281,468.449615 198.335114,468.095947 199.106613,467.331238 
	C208.907745,457.616516 218.659836,447.852142 228.387543,438.063812 
	C229.059769,437.387390 229.440002,436.420776 230.000916,435.238220 
	C231.641739,436.037384 233.237671,437.187531 234.663452,438.793243 
	C232.455185,441.206268 230.400635,443.146942 228.381805,445.124054 
	C218.880737,454.428925 209.389450,463.743713 199.894684,473.054993 
	C198.653641,471.914154 197.412613,470.773315 196.169159,469.313385 
z"/>
<path fill="#1C98FD" opacity="1.000000" stroke="none" 
	d="
M111.065002,470.395477 
	C120.268326,460.610657 129.581833,451.114136 138.886246,441.608704 
	C140.863663,439.588623 142.808075,437.536194 144.922684,435.195068 
	C146.329620,436.038330 147.581589,437.185211 148.665451,438.789612 
	C146.458862,441.204712 144.403839,443.145386 142.384689,445.122620 
	C132.881989,454.428131 123.389107,463.743652 113.892738,473.055634 
	C112.985817,472.263947 112.078880,471.472290 111.065002,470.395477 
z"/>
<path fill="#0374FB" opacity="1.000000" stroke="none" 
	d="
M236.830032,443.991425 
	C238.172379,449.975433 234.563080,453.802032 230.811081,457.465088 
	C225.539993,462.611237 220.399414,467.948364 214.673706,472.544403 
	C212.255447,474.485535 208.489395,474.747589 205.290253,475.135498 
	C214.789185,464.873871 224.318649,455.234497 233.907379,445.654419 
	C234.672089,444.890411 235.846176,444.536102 236.830032,443.991425 
z"/>
<path fill="#0374FB" opacity="1.000000" stroke="none" 
	d="
M65.108185,444.953064 
	C65.677666,449.622986 63.770988,453.098694 60.361027,456.238556 
	C55.357540,460.845642 50.541332,465.679443 45.922909,470.673370 
	C42.706383,474.151398 38.894913,475.668427 34.284866,475.116211 
	C43.396912,465.255859 52.526546,456.006897 61.733292,446.835327 
	C62.611629,445.960327 63.971725,445.568939 65.108185,444.953064 
z"/>
<path fill="#0F86FC" opacity="1.000000" stroke="none" 
	d="
M114.070366,473.382690 
	C123.389107,463.743652 132.881989,454.428131 142.384689,445.122620 
	C144.403839,443.145386 146.458862,441.204712 148.804932,439.101624 
	C149.730530,440.397064 150.348572,441.838135 150.898163,443.634796 
	C150.506424,444.054840 150.068634,444.005890 149.876343,444.200043 
	C139.919464,454.253998 129.983459,464.328644 119.999527,474.750885 
	C118.051880,474.637054 116.149940,474.173401 114.070366,473.382690 
z"/>
<path fill="#0F86FC" opacity="1.000000" stroke="none" 
	d="
M236.893402,443.637207 
	C235.846176,444.536102 234.672089,444.890411 233.907379,445.654419 
	C224.318649,455.234497 214.789185,464.873871 205.097473,474.805176 
	C203.376251,474.639282 201.802078,474.166321 200.061295,473.374146 
	C209.389450,463.743713 218.880737,454.428925 228.381805,445.124054 
	C230.400635,443.146942 232.455185,441.206268 234.799835,439.101990 
	C235.723175,440.397766 236.339966,441.840393 236.893402,443.637207 
z"/>
<path fill="#0F86FC" opacity="1.000000" stroke="none" 
	d="
M65.058159,444.565735 
	C63.971725,445.568939 62.611629,445.960327 61.733292,446.835327 
	C52.526546,456.006897 43.396912,465.255859 34.096275,474.788055 
	C32.734776,474.979248 31.522951,474.865784 30.135885,474.429382 
	C31.044397,472.499207 31.912298,470.680511 33.246399,469.318481 
	C43.029949,459.330139 52.906822,449.433228 62.903030,439.201599 
	C63.703911,440.656616 64.356026,442.417542 65.058159,444.565735 
z"/>
<path fill="#CEE7FC" opacity="1.000000" stroke="none" 
	d="
M311.151489,383.302917 
	C315.720703,381.237610 320.165527,381.425171 324.549225,384.269348 
	C335.657867,391.476624 346.853455,398.550690 358.065765,405.596039 
	C359.041199,406.208984 360.396698,406.217163 361.795715,406.248688 
	C363.497986,408.196838 364.980164,410.402557 366.725830,412.809052 
	C367.905945,416.451691 368.822601,419.893555 370.155182,424.897217 
	C367.321045,423.291779 365.629608,422.521423 364.143585,421.462769 
	C349.717346,411.185333 335.324066,400.861633 320.925079,390.545959 
	C317.710236,388.242828 314.509949,385.919403 311.151489,383.302917 
z"/>
<path fill="#FDE27C" opacity="1.000000" stroke="none" 
	d="
M385.658569,137.052002 
	C383.668701,143.742126 381.341431,150.486649 378.968750,157.962250 
	C370.910248,169.000366 363.302185,179.658447 354.763000,189.509415 
	C347.185211,198.251266 337.778229,204.775589 325.845459,206.700623 
	C322.792786,203.602264 319.895905,200.803268 316.998993,198.004272 
	C325.057312,198.001785 332.175659,194.525742 337.658539,189.468552 
	C348.299438,179.653748 358.139923,168.938339 367.931641,158.247620 
	C374.085968,151.528290 379.548370,144.175186 385.658569,137.052002 
z"/>
<path fill="#FDD979" opacity="1.000000" stroke="none" 
	d="
M316.591339,198.002151 
	C319.895905,200.803268 322.792786,203.602264 325.631958,206.977509 
	C322.382751,208.704346 319.191193,209.854919 315.584534,211.004333 
	C311.057983,209.807495 306.969482,208.522202 302.823334,207.462463 
	C301.274811,207.066681 299.591858,207.197067 297.695618,206.891327 
	C295.326508,203.977005 293.231934,201.258881 291.073303,198.235687 
	C290.490570,197.026077 289.971893,196.121582 289.453217,195.217072 
	C292.360962,194.479736 295.268738,193.742386 298.588867,193.004059 
	C304.728699,194.668701 310.456207,196.334366 316.591339,198.002151 
z"/>
<path fill="#FCB533" opacity="1.000000" stroke="none" 
	d="
M432.945007,214.592697 
	C431.691620,217.436188 430.383240,219.870560 428.691650,222.690201 
	C426.427216,224.662094 424.554352,226.258759 422.662842,227.833038 
	C419.782410,230.230362 416.889069,232.612183 414.047668,234.617798 
	C417.485229,225.006454 418.667969,215.866760 412.999176,206.627289 
	C412.999695,205.501282 412.999847,204.750641 413.268860,203.800781 
	C416.025970,199.401245 418.514221,195.200943 421.002441,191.000610 
	C424.066071,190.000259 427.129669,188.999893 430.596039,187.998856 
	C431.629211,196.726639 432.259613,205.455093 432.945007,214.592697 
z"/>
<path fill="#FBBD3C" opacity="1.000000" stroke="none" 
	d="
M414.001221,235.000595 
	C416.889069,232.612183 419.782410,230.230362 422.662842,227.833038 
	C424.554352,226.258759 426.427216,224.662094 428.651794,223.038483 
	C428.329803,225.408508 427.664490,227.815521 426.997955,230.611557 
	C411.842529,246.538254 396.688293,262.075897 380.894592,277.806458 
	C378.503418,277.998260 376.751709,277.997192 375.037201,277.652588 
	C376.169037,275.919769 377.262543,274.529602 378.358551,273.141418 
	C380.238129,270.760712 382.119293,268.381226 384.306396,265.863678 
	C390.070770,260.988098 395.899536,256.605774 400.880249,251.410385 
	C405.707397,246.375214 409.662903,240.504410 414.001221,235.000595 
z"/>
<path fill="#FDB543" opacity="1.000000" stroke="none" 
	d="
M375.000000,277.996124 
	C376.751709,277.997192 378.503418,277.998260 380.626099,277.998474 
	C376.168274,282.916412 371.339478,287.835266 366.205627,292.910767 
	C364.467987,292.401428 363.035431,291.735474 361.346252,290.583740 
	C362.239014,288.719147 363.354340,287.310120 364.545624,285.968567 
	C366.333344,283.955444 368.174347,281.989594 370.332153,279.968994 
	C372.114410,279.288239 373.557190,278.642181 375.000000,277.996124 
z"/>
<path fill="#CEE7FC" opacity="1.000000" stroke="none" 
	d="
M298.001221,287.008545 
	C295.246033,288.311523 292.490875,289.614532 289.735687,290.917542 
	C288.824615,288.786652 287.518707,286.735229 287.070801,284.511078 
	C285.119751,274.822357 283.849060,264.978760 281.519653,255.388550 
	C278.445343,242.731430 274.970734,230.144043 271.007324,217.737808 
	C266.732971,204.358170 261.653564,191.236938 257.026917,177.967560 
	C256.113403,175.347565 255.661530,172.566620 254.993683,169.449524 
	C255.785690,169.300369 256.580780,169.561600 257.685730,169.898605 
	C259.862732,171.143677 261.729858,172.312973 263.525146,173.992432 
	C263.766876,176.569397 263.754120,178.753235 264.446564,180.684204 
	C269.213318,193.977264 274.697662,207.041107 278.864868,220.514664 
	C285.678558,242.544785 291.665497,264.830597 298.001221,287.008545 
z"/>
<path fill="#C7E3FB" opacity="1.000000" stroke="none" 
	d="
M298.405151,287.006653 
	C291.665497,264.830597 285.678558,242.544785 278.864868,220.514664 
	C274.697662,207.041107 269.213318,193.977264 264.446564,180.684204 
	C263.754120,178.753235 263.766876,176.569397 263.718506,174.255188 
	C266.222351,175.422501 268.461029,176.837219 270.901917,178.926682 
	C272.247711,183.407608 273.262360,187.258163 274.555115,191.012939 
	C285.343567,222.348007 296.183197,253.665482 307.007385,284.988251 
	C304.274628,285.660400 301.541840,286.332581 298.405151,287.006653 
z"/>
<path fill="#BDDDF8" opacity="1.000000" stroke="none" 
	d="
M307.335327,284.960022 
	C296.183197,253.665482 285.343567,222.348007 274.555115,191.012939 
	C273.262360,187.258163 272.247711,183.407608 271.088684,179.198395 
	C274.031799,181.166092 276.990387,183.536850 280.012451,186.644806 
	C280.360413,188.668152 280.504883,190.005096 280.950073,191.232986 
	C290.054443,216.343781 299.160797,241.454056 308.397095,266.516388 
	C309.019684,268.205780 310.674164,269.514893 311.905182,271.417664 
	C311.340393,275.874512 310.719086,279.914520 310.097778,283.954559 
	C309.286316,284.280304 308.474792,284.606018 307.335327,284.960022 
z"/>
<path fill="#B5D8F7" opacity="1.000000" stroke="none" 
	d="
M311.848694,271.000885 
	C310.674164,269.514893 309.019684,268.205780 308.397095,266.516388 
	C299.160797,241.454056 290.054443,216.343781 280.950073,191.232986 
	C280.504883,190.005096 280.360413,188.668152 280.112701,186.950287 
	C283.076355,189.319290 286.003204,192.119949 289.191650,195.068848 
	C289.971893,196.121582 290.490570,197.026077 291.036560,198.686340 
	C291.201569,200.914093 291.013336,202.512314 291.526947,203.838745 
	C297.264648,218.656662 303.074249,233.447281 308.998627,248.191345 
	C309.458374,249.335449 310.928101,250.073685 312.020447,251.301788 
	C312.363403,252.396912 312.614319,253.190796 312.827271,254.434753 
	C312.861908,257.590454 312.934540,260.296112 312.924438,263.398865 
	C312.510681,266.197632 312.179688,268.599243 311.848694,271.000885 
z"/>
<path fill="#FBD24E" opacity="1.000000" stroke="none" 
	d="
M393.998779,184.999390 
	C394.495392,184.738251 394.991974,184.477112 395.747314,184.105774 
	C396.339508,186.714050 396.672943,189.432526 396.857910,192.909744 
	C395.807007,196.446060 394.904541,199.223633 393.734558,202.197968 
	C391.212616,205.438171 389.147308,208.646439 386.666718,211.492767 
	C380.306641,218.790588 374.150116,226.336716 367.148376,232.978333 
	C362.822632,237.081604 357.097900,239.710052 351.557129,243.000244 
	C347.409088,243.331848 343.705139,243.663788 340.000549,243.583969 
	C340.334076,240.781067 340.668243,238.389923 341.366272,235.957535 
	C352.555054,231.834518 362.591644,226.212357 369.952972,217.261902 
	C378.463074,206.914734 386.025116,195.787796 393.998779,184.999390 
z"/>
<path fill="#FCC747" opacity="1.000000" stroke="none" 
	d="
M394.002045,202.001205 
	C394.904541,199.223633 395.807007,196.446060 396.859558,193.332321 
	C400.408264,188.518372 403.857666,184.077911 407.189941,179.551193 
	C409.965973,175.780136 412.604523,171.907852 415.653809,168.040802 
	C416.004059,170.043747 416.004456,172.086258 415.857208,174.898926 
	C411.472229,185.111908 407.234894,194.554733 402.585938,203.998413 
	C399.450226,203.333252 396.726135,202.667221 394.002045,202.001205 
z"/>
<path fill="#FCDE71" opacity="1.000000" stroke="none" 
	d="
M315.999664,211.005493 
	C319.191193,209.854919 322.382751,208.704346 325.787750,207.276886 
	C337.778229,204.775589 347.185211,198.251266 354.763000,189.509415 
	C363.302185,179.658447 370.910248,169.000366 378.961639,158.346359 
	C380.440796,156.808838 381.977692,155.715500 383.301361,154.406509 
	C385.703857,152.030609 387.979492,149.526413 390.653412,147.037567 
	C389.004150,152.742264 387.009521,158.485138 384.967163,164.965820 
	C376.139771,180.815399 366.677124,195.463150 353.345978,207.031235 
	C346.045227,213.366455 337.864197,218.441803 327.778320,219.733734 
	C323.246735,217.270035 317.958527,216.409744 315.999664,211.005493 
z"/>
<path fill="#FCDA66" opacity="1.000000" stroke="none" 
	d="
M328.003662,219.996948 
	C337.864197,218.441803 346.045227,213.366455 353.345978,207.031235 
	C366.677124,195.463150 376.139771,180.815399 384.959717,165.352112 
	C388.100372,163.359650 391.200775,161.718719 394.650574,160.038269 
	C394.338501,163.071472 393.677032,166.144165 392.737915,169.811920 
	C384.087982,182.321793 376.133789,194.560822 367.219421,206.055176 
	C359.185852,216.413864 348.614410,223.824936 335.613861,227.950912 
	C331.818481,226.934952 328.409241,225.967484 325.053223,224.667404 
	C326.072174,222.888855 327.037903,221.442902 328.003662,219.996948 
z"/>
<path fill="#FBBD3C" opacity="1.000000" stroke="none" 
	d="
M402.997559,203.997559 
	C407.234894,194.554733 411.472229,185.111908 415.859039,175.336670 
	C418.404419,174.676270 420.800262,174.348267 423.598663,174.011047 
	C423.007690,179.397720 422.014191,184.793625 421.011566,190.595078 
	C418.514221,195.200943 416.025970,199.401245 412.856873,203.811707 
	C409.118164,204.348511 406.060303,204.675171 403.001221,204.750763 
	C402.999176,204.332321 402.998383,204.164932 402.997559,203.997559 
z"/>
<path fill="#FCD65A" opacity="1.000000" stroke="none" 
	d="
M336.000000,227.999390 
	C348.614410,223.824936 359.185852,216.413864 367.219421,206.055176 
	C376.133789,194.560822 384.087982,182.321793 392.729523,170.204086 
	C394.103027,169.690552 395.207275,169.379929 396.656372,169.033737 
	C396.000763,174.051147 395.000305,179.104141 393.999329,184.578278 
	C386.025116,195.787796 378.463074,206.914734 369.952972,217.261902 
	C362.591644,226.212357 352.555054,231.834518 340.981659,235.950531 
	C338.487579,235.655685 336.741943,235.326614 334.997528,234.595367 
	C335.332489,232.128571 335.666260,230.063980 336.000000,227.999390 
z"/>
<path fill="#FDA837" opacity="1.000000" stroke="none" 
	d="
M311.905182,271.417664 
	C312.179688,268.599243 312.510681,266.197632 313.292969,263.443481 
	C323.061066,267.313324 332.499878,270.810211 343.158630,268.313080 
	C352.210663,272.412140 361.101685,276.207886 369.992676,280.003662 
	C368.174347,281.989594 366.333344,283.955444 364.545624,285.968567 
	C363.354340,287.310120 362.239014,288.719147 361.038940,290.423920 
	C360.561981,290.539734 360.135742,290.329651 359.469116,290.021667 
	C356.392029,288.668640 353.555328,287.413513 350.359406,286.101379 
	C347.602448,285.317627 345.204651,284.590851 342.418579,283.871643 
	C337.968597,283.274323 333.906952,282.669342 329.422760,282.125122 
	C322.969818,282.771454 316.939423,283.357056 310.503387,283.948608 
	C310.719086,279.914520 311.340393,275.874512 311.905182,271.417664 
z"/>
<path fill="#FDD36D" opacity="1.000000" stroke="none" 
	d="
M327.778320,219.733734 
	C327.037903,221.442902 326.072174,222.888855 324.635010,224.656662 
	C318.650299,224.036224 313.141602,223.064362 307.615753,222.202194 
	C307.121033,222.125000 306.515381,222.758575 305.706665,222.819901 
	C302.958130,217.414352 300.464142,212.250946 297.970184,207.087524 
	C299.591858,207.197067 301.274811,207.066681 302.823334,207.462463 
	C306.969482,208.522202 311.057983,209.807495 315.584534,211.004333 
	C317.958527,216.409744 323.246735,217.270035 327.778320,219.733734 
z"/>
<path fill="#A6CDF2" opacity="1.000000" stroke="none" 
	d="
M297.695618,206.891327 
	C300.464142,212.250946 302.958130,217.414352 305.726898,223.192062 
	C307.045532,226.873367 308.089417,229.940384 309.165558,233.386017 
	C310.029663,237.003510 310.861481,240.242386 311.658752,243.821167 
	C311.725616,246.440903 311.826996,248.720734 311.928406,251.000549 
	C310.928101,250.073685 309.458374,249.335449 308.998627,248.191345 
	C303.074249,233.447281 297.264648,218.656662 291.526947,203.838745 
	C291.013336,202.512314 291.201569,200.914093 291.100586,198.991440 
	C293.231934,201.258881 295.326508,203.977005 297.695618,206.891327 
z"/>
<path fill="#FBBF2D" opacity="1.000000" stroke="none" 
	d="
M414.047668,234.617798 
	C409.662903,240.504410 405.707397,246.375214 400.880249,251.410385 
	C395.899536,256.605774 390.070770,260.988098 383.930908,265.908203 
	C381.242157,266.843231 379.240753,267.610535 377.227966,268.346649 
	C370.447510,270.826324 362.319794,267.144775 361.124329,260.709412 
	C361.501862,259.609680 361.751556,258.804230 362.370239,257.993591 
	C363.921844,257.464020 365.192535,257.078827 366.273621,256.394196 
	C380.199280,247.575439 390.634796,235.112061 401.084717,222.711472 
	C405.314056,217.692627 409.042450,212.251587 412.998779,207.002670 
	C418.667969,215.866760 417.485229,225.006454 414.047668,234.617798 
z"/>
<path fill="#FBC736" opacity="1.000000" stroke="none" 
	d="
M412.999176,206.627289 
	C409.042450,212.251587 405.314056,217.692627 401.084717,222.711472 
	C390.634796,235.112061 380.199280,247.575439 366.273621,256.394196 
	C365.192535,257.078827 363.921844,257.464020 362.369629,257.543823 
	C362.000000,254.401566 362.000000,251.703842 362.154968,248.705841 
	C379.139130,236.998764 391.353180,221.265060 403.002441,205.001831 
	C406.060303,204.675171 409.118164,204.348511 412.588013,204.010925 
	C412.999847,204.750641 412.999695,205.501282 412.999176,206.627289 
z"/>
<path fill="#FCB533" opacity="1.000000" stroke="none" 
	d="
M360.996460,261.003662 
	C362.319794,267.144775 370.447510,270.826324 377.227966,268.346649 
	C379.240753,267.610535 381.242157,266.843231 383.624268,266.045715 
	C382.119293,268.381226 380.238129,270.760712 378.358551,273.141418 
	C377.262543,274.529602 376.169037,275.919769 375.037201,277.652588 
	C373.557190,278.642181 372.114410,279.288239 370.332153,279.968964 
	C361.101685,276.207886 352.210663,272.412140 343.190063,267.986938 
	C343.707397,266.239136 344.354309,265.120789 345.401978,263.949402 
	C350.867340,262.932129 355.931885,261.967896 360.996460,261.003662 
z"/>
<path fill="#FDB543" opacity="1.000000" stroke="none" 
	d="
M345.001221,264.002441 
	C344.354309,265.120789 343.707397,266.239136 343.029022,267.683594 
	C332.499878,270.810211 323.061066,267.313324 313.375702,263.046356 
	C312.934540,260.296112 312.861908,257.590454 313.249847,254.440155 
	C320.473602,254.661835 327.236755,255.328171 334.400085,256.048828 
	C337.533478,256.402893 340.266754,256.702637 343.041534,257.365967 
	C343.722443,259.820526 344.361816,261.911469 345.001221,264.002441 
z"/>
<path fill="#FBC04E" opacity="1.000000" stroke="none" 
	d="
M333.999939,255.994507 
	C327.236755,255.328171 320.473602,254.661835 313.287842,253.990082 
	C312.614319,253.190796 312.363403,252.396912 312.020447,251.301788 
	C311.826996,248.720734 311.725616,246.440903 311.876770,243.505066 
	C313.506104,242.969223 314.898682,242.996124 316.256866,243.226105 
	C321.510956,244.115692 326.754028,245.070023 332.001221,246.425049 
	C332.667480,249.898087 333.333710,252.946289 333.999939,255.994507 
z"/>
<path fill="#FBCD42" opacity="1.000000" stroke="none" 
	d="
M403.001221,204.750763 
	C391.353180,221.265060 379.139130,236.998764 361.741943,248.705536 
	C358.449707,249.338150 355.725464,249.670822 352.992676,249.608627 
	C352.656525,247.142700 352.328888,245.071655 352.001221,243.000610 
	C357.097900,239.710052 362.822632,237.081604 367.148376,232.978333 
	C374.150116,226.336716 380.306641,218.790588 386.666718,211.492767 
	C389.147308,208.646439 391.212616,205.438171 393.734558,202.197968 
	C396.726135,202.667221 399.450226,203.333252 402.585938,203.998413 
	C402.998383,204.164932 402.999176,204.332321 403.001221,204.750763 
z"/>
<path fill="#FDCA5A" opacity="1.000000" stroke="none" 
	d="
M332.001221,246.000244 
	C326.754028,245.070023 321.510956,244.115692 316.256866,243.226105 
	C314.898682,242.996124 313.506104,242.969223 311.911316,243.165146 
	C310.861481,240.242386 310.029663,237.003510 309.569397,233.385300 
	C318.292755,233.669830 326.644562,234.333694 334.996338,234.997559 
	C336.741943,235.326614 338.487579,235.655685 340.617798,235.991760 
	C340.668243,238.389923 340.334076,240.781067 339.618530,243.592102 
	C336.825165,244.674744 334.413208,245.337494 332.001221,246.000244 
z"/>
<path fill="#FCC747" opacity="1.000000" stroke="none" 
	d="
M332.001221,246.425064 
	C334.413208,245.337494 336.825165,244.674744 339.619202,244.003845 
	C343.705139,243.663788 347.409088,243.331848 351.557129,243.000259 
	C352.328888,245.071655 352.656525,247.142700 352.937836,249.947876 
	C349.594360,252.788818 346.297180,254.895615 343.000000,257.002411 
	C340.266754,256.702637 337.533478,256.402893 334.400085,256.048828 
	C333.333710,252.946289 332.667480,249.898087 332.001221,246.425064 
z"/>
<path fill="#FDCC63" opacity="1.000000" stroke="none" 
	d="
M334.997528,234.595367 
	C326.644562,234.333694 318.292755,233.669830 309.537109,233.006683 
	C308.089417,229.940384 307.045532,226.873367 305.981445,223.434204 
	C306.515381,222.758575 307.121033,222.125000 307.615753,222.202194 
	C313.141602,223.064362 318.650299,224.036224 324.581818,224.989258 
	C328.409241,225.967484 331.818481,226.934952 335.613892,227.950912 
	C335.666260,230.063980 335.332489,232.128571 334.997528,234.595367 
z"/>
<path fill="#FBBD3C" opacity="1.000000" stroke="none" 
	d="
M343.041534,257.365967 
	C346.297180,254.895615 349.594360,252.788818 352.946350,250.342773 
	C355.725464,249.670822 358.449707,249.338150 361.586975,249.005798 
	C362.000000,251.703842 362.000000,254.401566 362.000610,257.549042 
	C361.751556,258.804230 361.501862,259.609680 361.124329,260.709412 
	C355.931885,261.967896 350.867340,262.932129 345.401978,263.949402 
	C344.361816,261.911469 343.722443,259.820526 343.041534,257.365967 
z"/>
</svg>